sean_hairline.ufo
<glyph name="dollar" format="1">
  <advance width="520"/>
  <unicode hex="0024"/>
  <outline>
    <contour>
      <point x="255" y="58" type="line"/>
      <point x="233" y="58" type="line"/>
      <point x="233" y="-44" type="line"/>
      <point x="255" y="-44" type="line"/>
    </contour>
    <contour>
      <point x="267" y="672" type="line"/>
      <point x="267" y="774" type="line"/>
      <point x="245" y="774" type="line"/>
      <point x="245" y="672" type="line"/>
    </contour>
    <contour>
      <point x="71" y="97" type="line"/>
      <point x="129" y="62"/>
      <point x="175" y="46"/>
      <point x="243" y="46" type="curve" smooth="yes"/>
      <point x="353" y="46"/>
      <point x="434" y="93"/>
      <point x="434" y="194" type="curve" smooth="yes"/>
      <point x="434" y="292"/>
      <point x="365" y="337"/>
      <point x="274" y="381" type="curve" smooth="yes"/>
      <point x="190" y="421"/>
      <point x="117" y="452"/>
      <point x="117" y="542" type="curve" smooth="yes"/>
      <point x="117" y="619"/>
      <point x="174" y="660"/>
      <point x="256" y="660" type="curve" smooth="yes"/>
      <point x="319" y="660"/>
      <point x="361" y="645"/>
      <point x="415" y="613" type="curve"/>
      <point x="425" y="629" type="line"/>
      <point x="368" y="663"/>
      <point x="324" y="681"/>
      <point x="257" y="681" type="curve" smooth="yes"/>
      <point x="162" y="681"/>
      <point x="95" y="633"/>
      <point x="95" y="542" type="curve" smooth="yes"/>
      <point x="95" y="449"/>
      <point x="165" y="411"/>
      <point x="251" y="369" type="curve" smooth="yes"/>
      <point x="340" y="327"/>
      <point x="412" y="290"/>
      <point x="412" y="195" type="curve" smooth="yes"/>
      <point x="412" y="107"/>
      <point x="341" y="67"/>
      <point x="246" y="67" type="curve" smooth="yes"/>
      <point x="181" y="67"/>
      <point x="138" y="83"/>
      <point x="83" y="118" type="curve"/>
    </contour>
  </outline>
</glyph>
<glyph name="percent" format="1">
  <advance width="810"/>
  <unicode hex="0025"/>
  <outline>
    <contour>
      <point x="32" y="671" type="curve"/>
      <point x="30" y="565"/>
      <point x="90" y="485"/>
      <point x="191" y="486" type="curve" smooth="yes"/>
      <point x="292" y="486"/>
      <point x="347" y="569"/>
      <point x="347" y="677" type="curve" smooth="yes"/>
      <point x="347" y="782"/>
      <point x="292" y="862"/>
      <point x="193" y="862" type="curve" smooth="yes"/>
      <point x="90" y="863"/>
      <point x="30" y="780"/>
    </contour>
    <contour>
      <point x="53" y="673" type="curve" smooth="yes"/>
      <point x="53" y="768"/>
      <point x="101" y="841"/>
      <point x="190" y="841" type="curve" smooth="yes"/>
      <point x="278" y="842"/>
      <point x="327" y="770"/>
      <point x="326" y="676" type="curve"/>
      <point x="326" y="582"/>
      <point x="281" y="507"/>
      <point x="194" y="507" type="curve" smooth="yes"/>
      <point x="105" y="507"/>
      <point x="53" y="579"/>
    </contour>
    <contour>
      <point x="463" y="173" type="curve"/>
      <point x="461" y="67"/>
      <point x="521" y="-13"/>
      <point x="622" y="-12" type="curve" smooth="yes"/>
      <point x="723" y="-12"/>
      <point x="778" y="71"/>
      <point x="778" y="179" type="curve" smooth="yes"/>
      <point x="778" y="284"/>
      <point x="723" y="364"/>
      <point x="624" y="364" type="curve" smooth="yes"/>
      <point x="521" y="365"/>
      <point x="461" y="282"/>
    </contour>
    <contour>
      <point x="484" y="175" type="curve" smooth="yes"/>
      <point x="484" y="270"/>
      <point x="532" y="343"/>
      <point x="621" y="343" type="curve" smooth="yes"/>
      <point x="709" y="344"/>
      <point x="758" y="272"/>
      <point x="757" y="178" type="curve"/>
      <point x="757" y="84"/>
      <point x="712" y="9"/>
      <point x="625" y="9" type="curve" smooth="yes"/>
      <point x="536" y="9"/>
      <point x="484" y="81"/>
    </contour>
    <contour>
      <point x="202" y="0" type="line"/>
      <point x="628" y="852" type="line"/>
      <point x="606" y="852" type="line"/>
      <point x="180" y="0" type="line"/>
    </contour>
  </outline>
</glyph>
<glyph name="ampersand" format="1">
  <advance width="644"/>
  <unicode hex="0026"/>
  <outline>
    <contour>
      <point x="145" y="593" type="curve" smooth="yes"/>
      <point x="145" y="668"/>
      <point x="204" y="713"/>
      <point x="283" y="713" type="curve" smooth="yes"/>
      <point x="366" y="713"/>
      <point x="430" y="669"/>
      <point x="430" y="591" type="curve" smooth="yes"/>
      <point x="430" y="485"/>
      <point x="330" y="452"/>
      <point x="236" y="398" type="curve" smooth="yes"/>
      <point x="137" y="341"/>
      <point x="37" y="301"/>
      <point x="37" y="190" type="curve" smooth="yes"/>
      <point x="37" y="67"/>
      <point x="131" y="-7"/>
      <point x="259" y="-7" type="curve" smooth="yes"/>
      <point x="440" y="-7"/>
      <point x="533" y="136"/>
      <point x="589" y="318" type="curve"/>
      <point x="569" y="326" type="line"/>
      <point x="515" y="154"/>
      <point x="433" y="13"/>
      <point x="262" y="13" type="curve" smooth="yes"/>
      <point x="145" y="13"/>
      <point x="57" y="78"/>
      <point x="57" y="189" type="curve" smooth="yes"/>
      <point x="57" y="293"/>
      <point x="153" y="328"/>
      <point x="245" y="382" type="curve" smooth="yes"/>
      <point x="345" y="441"/>
      <point x="450" y="477"/>
      <point x="451" y="591" type="curve" smooth="yes"/>
      <point x="451" y="681"/>
      <point x="380" y="734"/>
      <point x="285" y="734" type="curve" smooth="yes"/>
      <point x="193" y="734"/>
      <point x="125" y="682"/>
      <point x="125" y="595" type="curve" smooth="yes"/>
      <point x="125" y="492"/>
      <point x="194" y="434"/>
      <point x="265" y="359" type="curve"/>
      <point x="595" y="0" type="line"/>
      <point x="622" y="0" type="line"/>
      <point x="278" y="371" type="line"/>
      <point x="214" y="443"/>
      <point x="145" y="496"/>
    </contour>
  </outline>
</glyph>
<glyph name="asterisk" format="1">
  <advance width="338"/>
  <unicode hex="002A"/>
  <outline>
    <contour>
      <point x="192" y="667" type="line"/>
      <point x="170" y="667" type="line"/>
      <point x="170" y="513" type="line"/>
      <point x="192" y="513" type="line"/>
    </contour>
    <contour>
      <point x="44" y="578" type="line"/>
      <point x="38" y="557" type="line"/>
      <point x="185" y="509" type="line"/>
      <point x="192" y="530" type="line"/>
    </contour>
    <contour>
      <point x="78" y="414" type="line"/>
      <point x="95" y="401" type="line"/>
      <point x="194" y="520" type="line"/>
      <point x="177" y="534" type="line"/>
    </contour>
    <contour>
      <point x="263" y="395" type="line"/>
      <point x="280" y="408" type="line"/>
      <point x="189" y="534" type="line"/>
      <point x="171" y="521" type="line"/>
    </contour>
    <contour>
      <point x="330" y="563" type="line"/>
      <point x="322" y="583" type="line"/>
      <point x="176" y="530" type="line"/>
      <point x="184" y="509" type="line"/>
    </contour>
  </outline>
</glyph>
<glyph name="zero" format="1">
  <advance width="750"/>
  <unicode hex="0030"/>
  <outline>
    <contour>
      <point x="133" y="356" type="curve" smooth="yes"/>
      <point x="133" y="549"/>
      <point x="215" y="713"/>
      <point x="389" y="713" type="curve" smooth="yes"/>
      <point x="565" y="715"/>
      <point x="653" y="553"/>
      <point x="650" y="359" type="curve"/>
      <point x="650" y="170"/>
      <point x="567" y="11"/>
      <point x="395" y="11" type="curve" smooth="yes"/>
      <point x="222" y="11"/>
      <point x="133" y="167"/>
    </contour>
    <contour>
      <point x="112" y="354" type="curve"/>
      <point x="108" y="153"/>
      <point x="207" y="-11"/>
      <point x="392" y="-10" type="curve" smooth="yes"/>
      <point x="577" y="-10"/>
      <point x="671" y="158"/>
      <point x="671" y="360" type="curve" smooth="yes"/>
      <point x="671" y="564"/>
      <point x="578" y="734"/>
      <point x="392" y="734" type="curve" smooth="yes"/>
      <point x="203" y="735"/>
      <point x="108" y="562"/>
    </contour>
  </outline>
</glyph>
<glyph name="two" format="1">
  <advance width="545"/>
  <unicode hex="0032"/>
  <outline>
    <contour>
      <point x="44" y="21" type="line"/>
      <point x="44" y="0" type="line"/>
      <point x="510" y="0" type="line"/>
      <point x="510" y="21" type="line"/>
    </contour>
    <contour>
      <point x="58.0" y="9.0" type="line"/>
      <point x="153" y="84"/>
      <point x="216" y="140"/>
      <point x="306" y="220" type="curve" smooth="yes"/>
      <point x="410" y="312"/>
      <point x="480" y="391"/>
      <point x="480" y="529" type="curve"/>
      <point x="480" y="651"/>
      <point x="412" y="733"/>
      <point x="294" y="733" type="curve" smooth="yes"/>
      <point x="194" y="733"/>
      <point x="136" y="678"/>
      <point x="86" y="590" type="curve"/>
      <point x="103" y="578" type="line"/>
      <point x="148" y="660"/>
      <point x="201" y="712"/>
      <point x="293" y="712" type="curve" smooth="yes"/>
      <point x="400" y="712"/>
      <point x="461" y="637"/>
      <point x="461" y="526" type="curve"/>
      <point x="461" y="395"/>
      <point x="391" y="321"/>
      <point x="292" y="233" type="curve" smooth="yes"/>
      <point x="201" y="153"/>
      <point x="138" y="98"/>
      <point x="44.0" y="21.0" type="curve"/>
    </contour>
  </outline>
</glyph>
<glyph name="B" format="1">
  <advance width="618"/>
  <unicode hex="0042"/>
  <outline>
    <contour>
      <point x="286" y="394" type="line"/>
      <point x="405" y="394"/>
      <point x="493" y="444"/>
      <point x="493" y="553" type="curve" smooth="yes"/>
      <point x="493" y="662"/>
      <point x="416" y="722"/>
      <point x="302" y="722" type="curve"/>
      <point x="129" y="722" type="line"/>
      <point x="129" y="700" type="line"/>
      <point x="299" y="700" type="line"/>
      <point x="401" y="700"/>
      <point x="471" y="648"/>
      <point x="471" y="551" type="curve" smooth="yes"/>
      <point x="471" y="454"/>
      <point x="392" y="411"/>
      <point x="286" y="411" type="curve"/>
      <point x="130" y="411" type="line"/>
      <point x="130" y="394" type="line"/>
    </contour>
    <contour>
      <point x="286" y="392" type="line"/>
      <point x="421" y="392"/>
      <point x="519" y="331"/>
      <point x="519" y="205" type="curve" smooth="yes"/>
      <point x="523" y="84"/>
      <point x="430" y="21"/>
      <point x="300" y="21" type="curve"/>
      <point x="129" y="21" type="line"/>
      <point x="129" y="0" type="line"/>
      <point x="300" y="0" type="line"/>
      <point x="444" y="0"/>
      <point x="544" y="73"/>
      <point x="540" y="208" type="curve" smooth="yes"/>
      <point x="540" y="343"/>
      <point x="432" y="407"/>
      <point x="286" y="407" type="curve"/>
      <point x="130" y="407" type="line"/>
      <point x="130" y="392" type="line"/>
    </contour>
    <contour>
      <point x="142" y="0" type="line"/>
      <point x="142" y="722" type="line"/>
      <point x="119" y="722" type="line"/>
      <point x="119" y="0" type="line"/>
    </contour>
  </outline>
</glyph>
<glyph name="F" format="1">
  <advance width="581"/>
  <unicode hex="0046"/>
  <outline>
    <contour>
      <point x="135" y="362" type="line"/>
      <point x="457" y="362" type="line"/>
      <point x="457" y="384" type="line"/>
      <point x="135" y="384" type="line"/>
    </contour>
    <contour>
      <point x="142" y="0" type="line"/>
      <point x="142" y="0"/>
      <point x="142" y="722"/>
      <point x="142" y="722" type="curve"/>
      <point x="120" y="722" type="line"/>
      <point x="120" y="0" type="line"/>
    </contour>
    <contour>
      <point x="120" y="701" type="line"/>
      <point x="530" y="701" type="line"/>
      <point x="530" y="722" type="line"/>
      <point x="120" y="722" type="line"/>
    </contour>
  </outline>
</glyph>
<glyph name="N" format="1">
  <advance width="800"/>
  <unicode hex="004E"/>
  <outline>
    <contour>
      <point x="684" y="0" type="line"/>
      <point x="148" y="722" type="line"/>
      <point x="122" y="722" type="line"/>
      <point x="658" y="0" type="line"/>
    </contour>
    <contour>
      <point x="662" y="722" type="line"/>
      <point x="662" y="0" type="line"/>
      <point x="684" y="0" type="line"/>
      <point x="684" y="722" type="line"/>
    </contour>
    <contour>
      <point x="144" y="722" type="line"/>
      <point x="122" y="722" type="line"/>
      <point x="122" y="0" type="line"/>
      <point x="144" y="0" type="line"/>
    </contour>
  </outline>
</glyph>
<glyph name="Q" format="1">
  <advance width="836"/>
  <unicode hex="0051"/>
  <outline>
    <contour>
      <point x="125" y="361" type="curve" smooth="yes"/>
      <point x="125" y="557"/>
      <point x="219" y="707"/>
      <point x="401" y="707" type="curve" smooth="yes"/>
      <point x="585" y="709"/>
      <point x="685" y="560"/>
      <point x="682" y="363" type="curve"/>
      <point x="682" y="166"/>
      <point x="589" y="15"/>
      <point x="407" y="15" type="curve" smooth="yes"/>
      <point x="223" y="15"/>
      <point x="125" y="164"/>
    </contour>
    <contour>
      <point x="104" y="358" type="curve"/>
      <point x="100" y="149"/>
      <point x="208" y="-7"/>
      <point x="404" y="-6" type="curve" smooth="yes"/>
      <point x="601" y="-6"/>
      <point x="703" y="154"/>
      <point x="703" y="365" type="curve" smooth="yes"/>
      <point x="703" y="572"/>
      <point x="599" y="728"/>
      <point x="404" y="728" type="curve" smooth="yes"/>
      <point x="206" y="729"/>
      <point x="100" y="569"/>
    </contour>
    <contour>
      <point x="400" y="-4" type="line"/>
      <point x="449" y="-76"/>
      <point x="494" y="-127"/>
      <point x="567" y="-173" type="curve" smooth="yes"/>
      <point x="645" y="-223"/>
      <point x="715" y="-237"/>
      <point x="808" y="-240" type="curve"/>
      <point x="811" y="-219" type="line"/>
      <point x="723" y="-216"/>
      <point x="656" y="-205"/>
      <point x="581" y="-158" type="curve" smooth="yes"/>
      <point x="510" y="-113"/>
      <point x="469" y="-63"/>
      <point x="421" y="6" type="curve"/>
    </contour>
  </outline>
</glyph>
<glyph name="V" format="1">
  <advance width="618"/>
  <unicode hex="0056"/>
  <outline>
    <contour>
      <point x="575" y="722" type="line"/>
      <point x="297" y="0" type="line"/>
      <point x="322" y="0" type="line"/>
      <point x="599" y="722" type="line"/>
    </contour>
    <contour>
      <point x="315" y="0" type="line"/>
      <point x="33" y="722" type="line"/>
      <point x="9" y="722" type="line"/>
      <point x="291" y="0" type="line"/>
    </contour>
  </outline>
</glyph>
<glyph name="W" format="1">
  <advance width="879"/>
  <unicode hex="0057"/>
  <outline>
    <contour>
      <point x="252" y="0" type="line"/>
      <point x="455" y="722" type="line"/>
      <point x="430" y="722" type="line"/>
      <point x="230" y="0" type="line"/>
    </contour>
    <contour>
      <point x="437" y="722" type="line"/>
      <point x="620" y="0" type="line"/>
      <point x="642" y="0" type="line"/>
      <point x="461" y="722" type="line"/>
    </contour>
    <contour>
      <point x="252" y="0" type="line"/>
      <point x="72" y="722" type="line"/>
      <point x="48" y="722" type="line"/>
      <point x="230" y="0" type="line"/>
    </contour>
    <contour>
      <point x="620" y="0" type="line"/>
      <point x="642" y="0" type="line"/>
      <point x="832" y="722" type="line"/>
      <point x="808" y="722" type="line"/>
    </contour>
  </outline>
</glyph>
<glyph name="X" format="1">
  <advance width="637"/>
  <unicode hex="0058"/>
  <outline>
    <contour>
      <point x="537" y="722" type="line"/>
      <point x="38" y="0" type="line"/>
      <point x="64" y="0" type="line"/>
      <point x="560" y="722" type="line"/>
    </contour>
    <contour>
      <point x="588" y="0" type="line"/>
      <point x="94" y="722" type="line"/>
      <point x="71" y="722" type="line"/>
      <point x="563" y="0" type="line"/>
    </contour>
  </outline>
</glyph>
<glyph name="Y" format="1">
  <advance width="509"/>
  <unicode hex="0059"/>
  <outline>
    <contour>
      <point x="255" y="337" type="line"/>
      <point x="20" y="722" type="line"/>
      <point x="-4" y="722" type="line"/>
      <point x="231" y="337" type="line"/>
    </contour>
    <contour>
      <point x="479" y="722" type="line"/>
      <point x="231" y="337" type="line"/>
      <point x="255" y="337" type="line"/>
      <point x="503" y="722" type="line"/>
    </contour>
    <contour>
      <point x="255" y="0" type="line"/>
      <point x="255" y="346" type="line"/>
      <point x="231" y="346" type="line"/>
      <point x="231" y="0" type="line"/>
    </contour>
  </outline>
</glyph>
<glyph name="bracketright" format="1">
  <advance width="267"/>
  <unicode hex="005D"/>
  <outline>
    <contour>
      <point x="200" y="-145" type="line"/>
      <point x="200" y="-123" type="line"/>
      <point x="43" y="-123" type="line"/>
      <point x="43" y="-145" type="line"/>
    </contour>
    <contour>
      <point x="200" y="750" type="line"/>
      <point x="200" y="772" type="line"/>
      <point x="43" y="772" type="line"/>
      <point x="43" y="750" type="line"/>
    </contour>
    <contour>
      <point x="178" y="760" type="line"/>
      <point x="178" y="-145" type="line"/>
      <point x="200" y="-145" type="line"/>
      <point x="200" y="760" type="line"/>
    </contour>
  </outline>
</glyph>
<glyph name="asciicircum" format="1">
  <advance width="476"/>
  <unicode hex="005E"/>
  <outline>
    <contour>
      <point x="251" y="811" type="line"/>
      <point x="229" y="811" type="line"/>
      <point x="55" y="466" type="line"/>
      <point x="77" y="466" type="line"/>
    </contour>
    <contour>
      <point x="229" y="811" type="line"/>
      <point x="399" y="476" type="line"/>
      <point x="421" y="476" type="line"/>
      <point x="251" y="811" type="line"/>
    </contour>
  </outline>
</glyph>
<glyph name="b" format="1">
  <advance width="654"/>
  <unicode hex="0062"/>
  <outline>
    <contour>
      <point x="125" y="457" type="line"/>
      <point x="179" y="517"/>
      <point x="235" y="548"/>
      <point x="314" y="548" type="curve" smooth="yes"/>
      <point x="470" y="548"/>
      <point x="558" y="423"/>
      <point x="558" y="258" type="curve" smooth="yes"/>
      <point x="558" y="104"/>
      <point x="476" y="-10"/>
      <point x="332" y="-10" type="curve"/>
      <point x="236" y="-10"/>
      <point x="166" y="36"/>
      <point x="126" y="122" type="curve"/>
      <point x="135" y="134" type="line"/>
      <point x="175" y="55"/>
      <point x="239" y="13"/>
      <point x="328" y="13" type="curve"/>
      <point x="462" y="12"/>
      <point x="539" y="119"/>
      <point x="536" y="262" type="curve"/>
      <point x="536" y="413"/>
      <point x="459" y="528"/>
      <point x="318" y="528" type="curve" smooth="yes"/>
      <point x="241" y="528"/>
      <point x="185" y="500"/>
      <point x="133" y="442" type="curve"/>
    </contour>
    <contour>
      <point x="138" y="0" type="line"/>
      <point x="116" y="0" type="line"/>
      <point x="116" y="800" type="line"/>
      <point x="138" y="800" type="line"/>
    </contour>
  </outline>
</glyph>
<glyph name="d" format="1">
  <advance width="641"/>
  <unicode hex="0064"/>
  <outline>
    <contour>
      <point x="535" y="457" type="line"/>
      <point x="474" y="521"/>
      <point x="407" y="547"/>
      <point x="318" y="547" type="curve" smooth="yes"/>
      <point x="170" y="547"/>
      <point x="94" y="424"/>
      <point x="94" y="263" type="curve" smooth="yes"/>
      <point x="94" y="103"/>
      <point x="182" y="-13"/>
      <point x="334" y="-13" type="curve"/>
      <point x="427" y="-13"/>
      <point x="491" y="32"/>
      <point x="534" y="117" type="curve"/>
      <point x="526" y="133" type="line"/>
      <point x="482" y="51"/>
      <point x="418" y="11"/>
      <point x="327" y="11" type="curve"/>
      <point x="191" y="11"/>
      <point x="118" y="121"/>
      <point x="118" y="268" type="curve"/>
      <point x="118" y="414"/>
      <point x="189" y="525"/>
      <point x="324" y="525" type="curve" smooth="yes"/>
      <point x="407" y="525"/>
      <point x="469" y="501"/>
      <point x="526" y="442" type="curve"/>
    </contour>
    <contour>
      <point x="521" y="0" type="line"/>
      <point x="544" y="0" type="line"/>
      <point x="544" y="800" type="line"/>
      <point x="521" y="800" type="line"/>
    </contour>
  </outline>
</glyph>
<glyph name="e" format="1">
  <advance width="581"/>
  <unicode hex="0065"/>
  <outline>
    <contour>
      <point x="496" y="274" type="line"/>
      <point x="496" y="299" type="line"/>
      <point x="496" y="438"/>
      <point x="430" y="544"/>
      <point x="302" y="544" type="curve" smooth="yes"/>
      <point x="163" y="544"/>
      <point x="91" y="430"/>
      <point x="91" y="281" type="curve" smooth="yes"/>
      <point x="91" y="117"/>
      <point x="171" y="-10"/>
      <point x="324" y="-10" type="curve" smooth="yes"/>
      <point x="394" y="-10"/>
      <point x="445" y="14"/>
      <point x="494" y="64" type="curve"/>
      <point x="480" y="79" type="line"/>
      <point x="436" y="35"/>
      <point x="391" y="13"/>
      <point x="329" y="13" type="curve" smooth="yes"/>
      <point x="191" y="13"/>
      <point x="119" y="127"/>
      <point x="113" y="275" type="curve"/>
      <point x="115" y="413"/>
      <point x="172" y="522"/>
      <point x="298" y="522" type="curve" smooth="yes"/>
      <point x="414" y="522"/>
      <point x="475" y="429"/>
      <point x="475" y="305" type="curve" smooth="yes"/>
      <point x="475" y="274" type="line"/>
    </contour>
    <contour>
      <point x="486" y="274" type="line"/>
      <point x="486" y="293" type="line"/>
      <point x="103" y="293" type="line"/>
      <point x="103" y="274" type="line"/>
    </contour>
  </outline>
</glyph>
<glyph name="h" format="1">
  <advance width="618"/>
  <unicode hex="0068"/>
  <outline>
    <contour>
      <point x="140" y="800" type="line"/>
      <point x="118" y="800" type="line"/>
      <point x="118" y="0" type="line"/>
      <point x="140" y="0" type="line"/>
    </contour>
    <contour>
      <point x="134" y="412" type="line"/>
      <point x="168" y="489"/>
      <point x="230" y="524"/>
      <point x="314" y="524" type="curve" smooth="yes"/>
      <point x="420" y="524"/>
      <point x="490" y="453"/>
      <point x="490" y="347" type="curve"/>
      <point x="490" y="0" type="line"/>
      <point x="512" y="0" type="line"/>
      <point x="512" y="344" type="line"/>
      <point x="512" y="465"/>
      <point x="437" y="547"/>
      <point x="318" y="547" type="curve" smooth="yes"/>
      <point x="227" y="547"/>
      <point x="159" y="508"/>
      <point x="125" y="424" type="curve"/>
    </contour>
  </outline>
</glyph>
<glyph name="k" format="1">
  <advance width="581"/>
  <unicode hex="006B"/>
  <outline>
    <contour>
      <point x="133" y="276" type="line"/>
      <point x="499" y="0" type="line"/>
      <point x="530" y="0" type="line"/>
      <point x="154" y="287" type="line"/>
    </contour>
    <contour>
      <point x="145" y="800" type="curve"/>
      <point x="123" y="800" type="line"/>
      <point x="123" y="0" type="line"/>
      <point x="145" y="0" type="line"/>
      <point x="145" y="0"/>
      <point x="145" y="800"/>
    </contour>
    <contour>
      <point x="153" y="265" type="line"/>
      <point x="499" y="533" type="line"/>
      <point x="468" y="533" type="line"/>
      <point x="133" y="276" type="line"/>
    </contour>
  </outline>
</glyph>
<glyph name="n" format="1">
  <advance width="618"/>
  <unicode hex="006E"/>
  <outline>
    <contour>
      <point x="134" y="412" type="line"/>
      <point x="168" y="489"/>
      <point x="230" y="524"/>
      <point x="314" y="524" type="curve" smooth="yes"/>
      <point x="420" y="524"/>
      <point x="490" y="453"/>
      <point x="490" y="347" type="curve"/>
      <point x="490" y="0" type="line"/>
      <point x="512" y="0" type="line"/>
      <point x="512" y="344" type="line"/>
      <point x="512" y="465"/>
      <point x="437" y="547"/>
      <point x="318" y="547" type="curve" smooth="yes"/>
      <point x="227" y="547"/>
      <point x="159" y="508"/>
      <point x="125" y="424" type="curve"/>
    </contour>
    <contour>
      <point x="140" y="533" type="line"/>
      <point x="118" y="533" type="line"/>
      <point x="118" y="0" type="line"/>
      <point x="140" y="0" type="line"/>
    </contour>
  </outline>
</glyph>
<glyph name="q" format="1">
  <advance width="654"/>
  <unicode hex="0071"/>
  <outline>
    <contour>
      <point x="535" y="81" type="line"/>
      <point x="474" y="16"/>
      <point x="407" y="-9"/>
      <point x="318" y="-9" type="curve" smooth="yes"/>
      <point x="170" y="-9"/>
      <point x="94" y="113"/>
      <point x="94" y="272" type="curve" smooth="yes"/>
      <point x="94" y="431"/>
      <point x="182" y="546"/>
      <point x="334" y="546" type="curve"/>
      <point x="427" y="546"/>
      <point x="491" y="501"/>
      <point x="534" y="418" type="curve"/>
      <point x="526" y="402" type="line"/>
      <point x="482" y="482"/>
      <point x="418" y="523"/>
      <point x="327" y="523" type="curve"/>
      <point x="191" y="523"/>
      <point x="118" y="413"/>
      <point x="118" y="268" type="curve"/>
      <point x="118" y="123"/>
      <point x="189" y="12"/>
      <point x="324" y="12" type="curve" smooth="yes"/>
      <point x="407" y="12"/>
      <point x="469" y="35"/>
      <point x="526" y="96" type="curve"/>
    </contour>
    <contour>
      <point x="521" y="533" type="line"/>
      <point x="544" y="533" type="line"/>
      <point x="544" y="-300" type="line"/>
      <point x="521" y="-300" type="line"/>
    </contour>
  </outline>
</glyph>
<glyph name="u" format="1">
  <advance width="618"/>
  <unicode hex="0075"/>
  <outline>
    <contour>
      <point x="483" y="0" type="line"/>
      <point x="505" y="0" type="line"/>
      <point x="505" y="533" type="line"/>
      <point x="483" y="533" type="line"/>
    </contour>
    <contour>
      <point x="489" y="121" type="line"/>
      <point x="456" y="45"/>
      <point x="395" y="11"/>
      <point x="312" y="11" type="curve" smooth="yes"/>
      <point x="208" y="11"/>
      <point x="140" y="81"/>
      <point x="140" y="186" type="curve"/>
      <point x="140" y="533" type="line"/>
      <point x="118" y="533" type="line"/>
      <point x="118" y="189" type="line"/>
      <point x="118" y="70"/>
      <point x="191" y="-12"/>
      <point x="308" y="-12" type="curve" smooth="yes"/>
      <point x="399" y="-12"/>
      <point x="466" y="27"/>
      <point x="500" y="110" type="curve"/>
    </contour>
  </outline>
</glyph>
<glyph name="w" format="1">
  <advance width="836"/>
  <unicode hex="0077"/>
  <outline>
    <contour>
      <point x="222" y="0" type="line"/>
      <point x="425" y="533" type="line"/>
      <point x="400" y="533" type="line"/>
      <point x="200" y="0" type="line"/>
    </contour>
    <contour>
      <point x="590" y="0" type="line"/>
      <point x="612" y="0" type="line"/>
      <point x="802" y="533" type="line"/>
      <point x="778" y="533" type="line"/>
    </contour>
    <contour>
      <point x="407" y="533" type="line"/>
      <point x="590" y="0" type="line"/>
      <point x="612" y="0" type="line"/>
      <point x="431" y="533" type="line"/>
    </contour>
    <contour>
      <point x="222" y="0" type="line"/>
      <point x="42" y="533" type="line"/>
      <point x="18" y="533" type="line"/>
      <point x="200" y="0" type="line"/>
    </contour>
  </outline>
</glyph>
<glyph name="z" format="1">
  <advance width="581"/>
  <unicode hex="007A"/>
  <outline>
    <contour>
      <point x="489" y="511" type="line"/>
      <point x="489" y="533" type="line"/>
      <point x="105" y="533" type="line"/>
      <point x="105" y="511" type="line"/>
    </contour>
    <contour>
      <point x="473" y="523" type="line"/>
      <point x="35" y="22" type="line"/>
      <point x="51" y="10" type="line"/>
      <point x="489" y="511" type="line"/>
    </contour>
    <contour>
      <point x="35" y="22" type="line"/>
      <point x="35" y="0" type="line"/>
      <point x="511" y="0" type="line"/>
      <point x="511" y="22" type="line"/>
    </contour>
  </outline>
</glyph>
<glyph name="braceright" format="1">
  <advance width="326"/>
  <unicode hex="007D"/>
  <outline>
    <contour>
      <point x="274" y="327" type="curve"/>
      <point x="274" y="348" type="line"/>
      <point x="193" y="348"/>
      <point x="149" y="289"/>
      <point x="149" y="203" type="curve"/>
      <point x="149" y="18" type="line"/>
      <point x="149" y="-57"/>
      <point x="114" y="-111"/>
      <point x="43" y="-111" type="curve"/>
      <point x="43" y="-131" type="line"/>
      <point x="126" y="-131"/>
      <point x="169" y="-70"/>
      <point x="169" y="18" type="curve"/>
      <point x="169" y="206" type="line"/>
      <point x="169" y="278"/>
      <point x="206" y="327"/>
    </contour>
    <contour>
      <point x="274" y="350" type="line"/>
      <point x="206" y="350"/>
      <point x="169" y="399"/>
      <point x="169" y="471" type="curve"/>
      <point x="169" y="658" type="line"/>
      <point x="169" y="746"/>
      <point x="126" y="808"/>
      <point x="43" y="808" type="curve"/>
      <point x="43" y="788" type="line"/>
      <point x="114" y="788"/>
      <point x="149" y="734"/>
      <point x="149" y="659" type="curve"/>
      <point x="149" y="473" type="line"/>
      <point x="149" y="388"/>
      <point x="193" y="329"/>
      <point x="274" y="329" type="curve"/>
    </contour>
  </outline>
</glyph>
<glyph name="asciitilde" format="1">
  <advance width="586"/>
  <unicode hex="007E"/>
  <outline>
    <contour>
      <point x="518" y="344" type="line"/>
      <point x="518" y="281"/>
      <point x="482" y="240"/>
      <point x="420" y="240" type="curve" smooth="yes"/>
      <point x="371" y="240"/>
      <point x="338" y="257"/>
      <point x="301" y="289" type="curve" smooth="yes"/>
      <point x="262" y="323"/>
      <point x="230" y="344"/>
      <point x="179" y="344" type="curve" smooth="yes"/>
      <point x="100" y="344"/>
      <point x="49" y="296"/>
      <point x="49" y="218" type="curve"/>
      <point x="69" y="218" type="line"/>
      <point x="69" y="284"/>
      <point x="111" y="324"/>
      <point x="178" y="324" type="curve" smooth="yes"/>
      <point x="221" y="324"/>
      <point x="249" y="308"/>
      <point x="281" y="279" type="curve" smooth="yes"/>
      <point x="325" y="242"/>
      <point x="361" y="220"/>
      <point x="418" y="219" type="curve" smooth="yes"/>
      <point x="493" y="219"/>
      <point x="539" y="268"/>
      <point x="539" y="344" type="curve"/>
    </contour>
  </outline>
</glyph>
<glyph name="cent" format="1">
  <advance width="584"/>
  <unicode hex="00A2"/>
  <outline>
    <contour>
      <point x="336" y="67" type="line"/>
      <point x="314" y="67" type="line"/>
      <point x="314" y="-41" type="line"/>
      <point x="336" y="-41" type="line"/>
    </contour>
    <contour>
      <point x="357" y="670" type="line"/>
      <point x="357" y="778" type="line"/>
      <point x="335" y="778" type="line"/>
      <point x="335" y="670" type="line"/>
    </contour>
    <contour>
      <point x="63" y="366" type="curve" smooth="yes"/>
      <point x="63" y="183"/>
      <point x="151" y="54"/>
      <point x="323" y="54" type="curve" smooth="yes"/>
      <point x="421" y="54"/>
      <point x="485" y="84"/>
      <point x="561" y="146" type="curve"/>
      <point x="547" y="163" type="line"/>
      <point x="477" y="103"/>
      <point x="417" y="75"/>
      <point x="325" y="75" type="curve" smooth="yes"/>
      <point x="165" y="75"/>
      <point x="85" y="197"/>
      <point x="85" y="367" type="curve" smooth="yes"/>
      <point x="85" y="541"/>
      <point x="180" y="658"/>
      <point x="348" y="658" type="curve" smooth="yes"/>
      <point x="430" y="658"/>
      <point x="485" y="639"/>
      <point x="551" y="591" type="curve"/>
      <point x="563" y="609" type="line"/>
      <point x="493" y="658"/>
      <point x="435" y="679"/>
      <point x="350" y="679" type="curve" smooth="yes"/>
      <point x="168" y="679"/>
      <point x="63" y="554"/>
    </contour>
  </outline>
</glyph>
<glyph name="sterling" format="1">
  <advance width="505"/>
  <unicode hex="00A3"/>
  <outline>
    <contour>
      <point x="433" y="1" type="line"/>
      <point x="433" y="23" type="line"/>
      <point x="29" y="23" type="line"/>
      <point x="29" y="1" type="line"/>
    </contour>
    <contour>
      <point x="386" y="367" type="line"/>
      <point x="386" y="388" type="line"/>
      <point x="65" y="388" type="line"/>
      <point x="65" y="367" type="line"/>
    </contour>
    <contour>
      <point x="432" y="640" type="curve"/>
      <point x="443" y="657" type="line"/>
      <point x="399" y="689"/>
      <point x="363" y="705"/>
      <point x="309" y="705" type="curve"/>
      <point x="160" y="705"/>
      <point x="125" y="555"/>
      <point x="163" y="375" type="curve" smooth="yes"/>
      <point x="203" y="184"/>
      <point x="184" y="22"/>
      <point x="29" y="22" type="curve"/>
      <point x="29" y="0" type="line"/>
      <point x="195" y="2"/>
      <point x="224" y="171"/>
      <point x="185" y="372" type="curve" smooth="yes"/>
      <point x="152" y="541"/>
      <point x="169" y="684"/>
      <point x="306" y="684" type="curve"/>
      <point x="357" y="684"/>
      <point x="391" y="671"/>
    </contour>
  </outline>
</glyph>
<glyph name="section" format="1">
  <advance width="489"/>
  <unicode hex="00A7"/>
  <outline>
    <contour>
      <point x="364" y="131" type="line"/>
      <point x="402" y="153"/>
      <point x="425" y="189"/>
      <point x="425" y="239" type="curve" smooth="yes"/>
      <point x="424" y="323"/>
      <point x="353" y="356"/>
      <point x="270" y="384" type="curve" smooth="yes"/>
      <point x="192" y="412"/>
      <point x="125" y="444"/>
      <point x="125" y="523" type="curve" smooth="yes"/>
      <point x="125" y="596"/>
      <point x="184" y="635"/>
      <point x="262" y="635" type="curve" smooth="yes"/>
      <point x="316" y="635"/>
      <point x="354" y="619"/>
      <point x="400" y="591" type="curve"/>
      <point x="410" y="609" type="line"/>
      <point x="362" y="638"/>
      <point x="321" y="655"/>
      <point x="265" y="655" type="curve" smooth="yes"/>
      <point x="174" y="655"/>
      <point x="105" y="609"/>
      <point x="105" y="524" type="curve" smooth="yes"/>
      <point x="105" y="439"/>
      <point x="171" y="397"/>
      <point x="255" y="367" type="curve" smooth="yes"/>
      <point x="333" y="340"/>
      <point x="404" y="317"/>
      <point x="404" y="239" type="curve" smooth="yes"/>
      <point x="404" y="194"/>
      <point x="381" y="163"/>
      <point x="346" y="144" type="curve"/>
    </contour>
    <contour>
      <point x="90" y="-57"/>
      <point x="140" y="-74"/>
      <point x="210" y="-74" type="curve" smooth="yes"/>
      <point x="313" y="-74"/>
      <point x="394" y="-31"/>
      <point x="394" y="63" type="curve" smooth="yes"/>
      <point x="393" y="147"/>
      <point x="322" y="180"/>
      <point x="239" y="208" type="curve" smooth="yes"/>
      <point x="161" y="236"/>
      <point x="94" y="268"/>
      <point x="94" y="347" type="curve" smooth="yes"/>
      <point x="94" y="389"/>
      <point x="114" y="420"/>
      <point x="146" y="439" type="curve"/>
      <point x="130" y="452" type="line"/>
      <point x="95" y="430"/>
      <point x="74" y="395"/>
      <point x="74" y="348" type="curve" smooth="yes"/>
      <point x="74" y="263"/>
      <point x="140" y="221"/>
      <point x="224" y="191" type="curve" smooth="yes"/>
      <point x="302" y="164"/>
      <point x="373" y="141"/>
      <point x="373" y="63" type="curve" smooth="yes"/>
      <point x="373" y="-17"/>
      <point x="302" y="-53"/>
      <point x="214" y="-53" type="curve" smooth="yes"/>
      <point x="148" y="-53"/>
      <point x="102" y="-36"/>
      <point x="47" y="3" type="curve"/>
      <point x="33" y="-14" type="line"/>
    </contour>
  </outline>
</glyph>
<glyph name="copyright" format="1">
  <advance width="706"/>
  <unicode hex="00A9"/>
  <outline>
    <contour>
      <point x="200" y="312" type="curve" smooth="yes"/>
      <point x="200" y="211"/>
      <point x="262" y="136"/>
      <point x="359" y="136" type="curve" smooth="yes"/>
      <point x="400" y="136"/>
      <point x="433" y="145"/>
      <point x="466" y="168" type="curve"/>
      <point x="452" y="185" type="line"/>
      <point x="423" y="166"/>
      <point x="396" y="157"/>
      <point x="361" y="157" type="curve" smooth="yes"/>
      <point x="275" y="157"/>
      <point x="222" y="224"/>
      <point x="222" y="313" type="curve" smooth="yes"/>
      <point x="222" y="402"/>
      <point x="282" y="465"/>
      <point x="370" y="465" type="curve" smooth="yes"/>
      <point x="405" y="465"/>
      <point x="433" y="454"/>
      <point x="461" y="433" type="curve"/>
      <point x="473" y="451" type="line"/>
      <point x="441" y="474"/>
      <point x="411" y="486"/>
      <point x="372" y="486" type="curve" smooth="yes"/>
      <point x="270" y="486"/>
      <point x="200" y="414"/>
    </contour>
    <contour>
      <point x="40" y="313" type="curve" smooth="yes"/>
      <point x="40" y="124"/>
      <point x="171" y="-6"/>
      <point x="360" y="-6" type="curve" smooth="yes"/>
      <point x="544" y="-6"/>
      <point x="667" y="128"/>
      <point x="667" y="315" type="curve" smooth="yes"/>
      <point x="667" y="504"/>
      <point x="544" y="640"/>
      <point x="359" y="640" type="curve" smooth="yes"/>
      <point x="169" y="640"/>
      <point x="40" y="505"/>
    </contour>
    <contour>
      <point x="61" y="314" type="curve" smooth="yes"/>
      <point x="61" y="492"/>
      <point x="180" y="619"/>
      <point x="357" y="619" type="curve" smooth="yes"/>
      <point x="531" y="619"/>
      <point x="646" y="490"/>
      <point x="646" y="313" type="curve" smooth="yes"/>
      <point x="646" y="141"/>
      <point x="533" y="17"/>
      <point x="364" y="17" type="curve" smooth="yes"/>
      <point x="186" y="17"/>
      <point x="61" y="137"/>
    </contour>
  </outline>
</glyph>
<glyph name="registered" format="1">
  <advance width="532"/>
  <unicode hex="00AE"/>
  <outline>
    <contour>
      <point x="64" y="469" type="curve" smooth="yes"/>
      <point x="64" y="586"/>
      <point x="148" y="664"/>
      <point x="266" y="664" type="curve" smooth="yes"/>
      <point x="387" y="664"/>
      <point x="477" y="590"/>
      <point x="477" y="473" type="curve" smooth="yes"/>
      <point x="477" y="350"/>
      <point x="391" y="264"/>
      <point x="268" y="264" type="curve" smooth="yes"/>
      <point x="147" y="264"/>
      <point x="64" y="348"/>
    </contour>
    <contour>
      <point x="43" y="468" type="curve" smooth="yes"/>
      <point x="43" y="335"/>
      <point x="132" y="241"/>
      <point x="264" y="241" type="curve" smooth="yes"/>
      <point x="402" y="241"/>
      <point x="498" y="337"/>
      <point x="498" y="475" type="curve" smooth="yes"/>
      <point x="498" y="603"/>
      <point x="400" y="685"/>
      <point x="268" y="685" type="curve" smooth="yes"/>
      <point x="137" y="685"/>
      <point x="43" y="598"/>
    </contour>
    <contour>
      <point x="196" y="572" type="line"/>
      <point x="244" y="572" type="line" smooth="yes"/>
      <point x="292" y="572"/>
      <point x="335" y="559"/>
      <point x="335" y="517" type="curve" smooth="yes"/>
      <point x="335" y="479"/>
      <point x="294" y="469"/>
      <point x="250" y="469" type="curve" smooth="yes"/>
      <point x="196" y="469" type="line"/>
      <point x="196" y="447" type="line"/>
      <point x="247" y="447" type="line" smooth="yes"/>
      <point x="306" y="447"/>
      <point x="357" y="468"/>
      <point x="357" y="520" type="curve" smooth="yes"/>
      <point x="357" y="572"/>
      <point x="306" y="593"/>
      <point x="248" y="593" type="curve" smooth="yes"/>
      <point x="196" y="593" type="line"/>
    </contour>
    <contour>
      <point x="183" y="593" type="line"/>
      <point x="183" y="340" type="line"/>
      <point x="205" y="340" type="line"/>
      <point x="205" y="593" type="line"/>
    </contour>
    <contour>
      <point x="266" y="462" type="line"/>
      <point x="352" y="340" type="line"/>
      <point x="379" y="340" type="line"/>
      <point x="290" y="467" type="line"/>
    </contour>
  </outline>
</glyph>
<glyph name="cedilla" format="1">
  <advance width="286"/>
  <unicode hex="00B8"/>
  <outline>
    <contour>
      <point x="148" y="12" type="line"/>
      <point x="102" y="-72" type="line"/>
      <point x="121" y="-81" type="line"/>
      <point x="168" y="3" type="line"/>
    </contour>
    <contour>
      <point x="121" y="-81" type="line"/>
      <point x="136" y="-72"/>
      <point x="150" y="-69"/>
      <point x="167" y="-69" type="curve"/>
      <point x="198" y="-69"/>
      <point x="218" y="-91"/>
      <point x="218" y="-122" type="curve" smooth="yes"/>
      <point x="218" y="-158"/>
      <point x="185" y="-176"/>
      <point x="146" y="-176" type="curve" smooth="yes"/>
      <point x="121" y="-176"/>
      <point x="102" y="-169"/>
      <point x="81" y="-156" type="curve"/>
      <point x="70" y="-175" type="line"/>
      <point x="96" y="-190"/>
      <point x="118" y="-199"/>
      <point x="148" y="-199" type="curve" smooth="yes"/>
      <point x="200" y="-199"/>
      <point x="240" y="-171"/>
      <point x="240" y="-122" type="curve" smooth="yes"/>
      <point x="240" y="-79"/>
      <point x="212" y="-48"/>
      <point x="169" y="-48" type="curve" smooth="yes"/>
      <point x="148" y="-48"/>
      <point x="132" y="-52"/>
      <point x="114" y="-62" type="curve"/>
    </contour>
  </outline>
</glyph>
<glyph name="AE" format="1">
  <advance width="850"/>
  <unicode hex="00C6"/>
  <outline>
    <contour>
      <point x="374" y="722" type="line"/>
      <point x="31" y="0" type="line"/>
      <point x="55" y="0" type="line"/>
      <point x="55" y="0"/>
      <point x="396" y="722"/>
      <point x="396" y="722" type="curve"/>
    </contour>
    <contour>
      <point x="394" y="296" type="line"/>
      <point x="182" y="296" type="line"/>
      <point x="173" y="275" type="line"/>
      <point x="401" y="275" type="line"/>
    </contour>
    <component base="E" xOffset="302"/>
  </outline>
</glyph>
<glyph name="multiply" format="1">
  <advance width="400"/>
  <unicode hex="00D7"/>
  <outline>
    <contour>
      <point x="46" y="444" type="line"/>
      <point x="335" y="155" type="line"/>
      <point x="351" y="170" type="line"/>
      <point x="61" y="460" type="line"/>
    </contour>
    <contour>
      <point x="354" y="442" type="line"/>
      <point x="338" y="457" type="line"/>
      <point x="54" y="173" type="line"/>
      <point x="69" y="157" type="line"/>
    </contour>
  </outline>
</glyph>
<glyph name="divide" format="1">
  <advance width="533"/>
  <unicode hex="00F7"/>
  <outline>
    <contour>
      <point x="495" y="243" type="line"/>
      <point x="495" y="265" type="line"/>
      <point x="40" y="265" type="line"/>
      <point x="40" y="243" type="line"/>
    </contour>
    <contour>
      <point x="241" y="394" type="line"/>
      <point x="286" y="394" type="line"/>
      <point x="286" y="440" type="line"/>
      <point x="241" y="440" type="line"/>
    </contour>
    <contour>
      <point x="241" y="107" type="line"/>
      <point x="241" y="61" type="line"/>
      <point x="286" y="61" type="line"/>
      <point x="286" y="107" type="line"/>
    </contour>
  </outline>
</glyph>
<glyph name="OE" format="1">
  <advance width="927"/>
  <unicode hex="0152"/>
  <outline>
    <contour>
      <point x="64" y="344" type="curve" smooth="yes"/>
      <point x="64" y="136"/>
      <point x="167" y="-9"/>
      <point x="364" y="-9" type="curve" smooth="yes"/>
      <point x="411" y="-9"/>
      <point x="443" y="-5"/>
      <point x="489" y="4" type="curve"/>
      <point x="482" y="23" type="line"/>
      <point x="439" y="15"/>
      <point x="409" y="12"/>
      <point x="366" y="12" type="curve" smooth="yes"/>
      <point x="182" y="12"/>
      <point x="86" y="150"/>
      <point x="86" y="345" type="curve" smooth="yes"/>
      <point x="86" y="557"/>
      <point x="185" y="709"/>
      <point x="383" y="709" type="curve" smooth="yes"/>
      <point x="421" y="709"/>
      <point x="448" y="705"/>
      <point x="485" y="696" type="curve"/>
      <point x="492" y="717" type="line"/>
      <point x="453" y="726"/>
      <point x="425" y="730"/>
      <point x="385" y="730" type="curve" smooth="yes"/>
      <point x="173" y="730"/>
      <point x="64" y="570"/>
    </contour>
    <component base="E" xOffset="384"/>
  </outline>
</glyph>
<glyph name="florin" format="1">
  <advance width="444"/>
  <unicode hex="0192"/>
  <outline>
    <contour>
      <point x="393" y="526" type="line"/>
      <point x="393" y="548" type="line"/>
      <point x="134" y="548" type="line"/>
      <point x="134" y="526" type="line"/>
    </contour>
    <contour>
      <point x="427" y="808" type="curve"/>
      <point x="431" y="828" type="line"/>
      <point x="351" y="844"/>
      <point x="297" y="794"/>
      <point x="280" y="710" type="curve"/>
      <point x="155" y="60" type="line"/>
      <point x="141" y="-13"/>
      <point x="96" y="-60"/>
      <point x="26" y="-46" type="curve"/>
      <point x="22" y="-66" type="line"/>
      <point x="104" y="-81"/>
      <point x="160" y="-30"/>
      <point x="177" y="57" type="curve"/>
      <point x="303" y="709" type="line"/>
      <point x="316" y="780"/>
      <point x="360" y="821"/>
    </contour>
  </outline>
</glyph>
<glyph name="circumflex" format="1">
  <advance width="355"/>
  <unicode hex="02C6"/>
  <outline>
    <contour>
      <point x="168" y="779" type="line"/>
      <point x="288" y="608" type="line"/>
      <point x="310" y="608" type="line"/>
      <point x="190" y="779" type="line"/>
    </contour>
    <contour>
      <point x="190" y="779" type="line"/>
      <point x="168" y="779" type="line"/>
      <point x="44" y="598" type="line"/>
      <point x="66" y="598" type="line"/>
    </contour>
  </outline>
</glyph>
<glyph name="breve" format="1">
  <advance width="295"/>
  <unicode hex="02D8"/>
  <outline>
    <contour>
      <point x="262" y="947" type="line"/>
      <point x="262" y="879"/>
      <point x="218" y="846"/>
      <point x="146" y="846" type="curve" smooth="yes"/>
      <point x="76" y="846"/>
      <point x="34" y="880"/>
      <point x="34" y="947" type="curve"/>
      <point x="13" y="947" type="line"/>
      <point x="13" y="866"/>
      <point x="61" y="823"/>
      <point x="144" y="823" type="curve" smooth="yes"/>
      <point x="230" y="823"/>
      <point x="283" y="864"/>
      <point x="283" y="947" type="curve"/>
    </contour>
  </outline>
</glyph>
<glyph name="ring" format="1">
  <advance width="246"/>
  <unicode hex="02DA"/>
  <outline>
    <contour>
      <point x="36" y="625" type="curve" smooth="yes"/>
      <point x="36" y="574"/>
      <point x="71" y="539"/>
      <point x="121" y="539" type="curve" smooth="yes"/>
      <point x="171" y="539"/>
      <point x="206" y="574"/>
      <point x="206" y="625" type="curve" smooth="yes"/>
      <point x="206" y="676"/>
      <point x="171" y="711"/>
      <point x="121" y="711" type="curve" smooth="yes"/>
      <point x="71" y="711"/>
      <point x="36" y="676"/>
    </contour>
    <contour>
      <point x="57" y="626" type="curve" smooth="yes"/>
      <point x="57" y="663"/>
      <point x="82" y="690"/>
      <point x="119" y="690" type="curve" smooth="yes"/>
      <point x="158" y="690"/>
      <point x="185" y="663"/>
      <point x="185" y="624" type="curve" smooth="yes"/>
      <point x="185" y="587"/>
      <point x="160" y="561"/>
      <point x="123" y="561" type="curve" smooth="yes"/>
      <point x="84" y="561"/>
      <point x="57" y="587"/>
    </contour>
  </outline>
</glyph>
<glyph name="tilde" format="1">
  <advance width="399"/>
  <unicode hex="02DC"/>
  <outline>
    <contour>
      <point x="343" y="775" type="line"/>
      <point x="343" y="728"/>
      <point x="327" y="691"/>
      <point x="285" y="691" type="curve" smooth="yes"/>
      <point x="251" y="691"/>
      <point x="232" y="708"/>
      <point x="206" y="730" type="curve" smooth="yes"/>
      <point x="179" y="754"/>
      <point x="160" y="775"/>
      <point x="124" y="775" type="curve" smooth="yes"/>
      <point x="65" y="775"/>
      <point x="34" y="731"/>
      <point x="34" y="669" type="curve"/>
      <point x="54" y="669" type="line"/>
      <point x="54" y="719"/>
      <point x="77" y="755"/>
      <point x="123" y="755" type="curve" smooth="yes"/>
      <point x="151" y="755"/>
      <point x="165" y="739"/>
      <point x="186" y="720" type="curve" smooth="yes"/>
      <point x="218" y="693"/>
      <point x="241" y="671"/>
      <point x="283" y="670" type="curve" smooth="yes"/>
      <point x="339" y="670"/>
      <point x="364" y="715"/>
      <point x="364" y="775" type="curve"/>
    </contour>
  </outline>
</glyph>
<glyph name="v_a" format="1">
  <advance width="753"/>
  <unicode hex="0905"/>
  <outline>
    <contour>
      <point x="618" y="399" type="line"/>
      <point x="479" y="333"/>
      <point x="362" y="370"/>
      <point x="210" y="395" type="curve"/>
      <point x="205" y="379" type="line"/>
      <point x="363" y="350"/>
      <point x="484" y="314"/>
      <point x="630" y="381" type="curve"/>
    </contour>
    <contour>
      <point x="144" y="403" type="curve"/>
      <point x="144" y="385" type="line"/>
      <point x="285" y="385"/>
      <point x="394" y="444"/>
      <point x="394" y="573" type="curve" smooth="yes"/>
      <point x="394" y="673"/>
      <point x="318" y="729"/>
      <point x="213" y="729" type="curve" smooth="yes"/>
      <point x="143" y="729"/>
      <point x="93" y="709"/>
      <point x="37" y="667" type="curve"/>
      <point x="51" y="651" type="line"/>
      <point x="102" y="689"/>
      <point x="146" y="709"/>
      <point x="210" y="709" type="curve" smooth="yes"/>
      <point x="305" y="709"/>
      <point x="373" y="660"/>
      <point x="372" y="571" type="curve" smooth="yes"/>
      <point x="371" y="455"/>
      <point x="272" y="403"/>
    </contour>
    <contour>
      <point x="144" y="382" type="line"/>
      <point x="281.0" y="382.0"/>
      <point x="387" y="298"/>
      <point x="389" y="192" type="curve" smooth="yes"/>
      <point x="391" y="99"/>
      <point x="313.0" y="40.2195121951"/>
      <point x="201" y="44" type="curve" smooth="yes"/>
      <point x="129" y="44"/>
      <point x="80" y="69"/>
      <point x="21" y="110" type="curve"/>
      <point x="9" y="94" type="line"/>
      <point x="70" y="48"/>
      <point x="123" y="23"/>
      <point x="199" y="23" type="curve" smooth="yes"/>
      <point x="325.0" y="18.2393617021"/>
      <point x="412" y="87"/>
      <point x="410" y="195" type="curve" smooth="yes"/>
      <point x="408" y="311"/>
      <point x="292.0" y="399.0"/>
      <point x="144" y="399" type="curve"/>
    </contour>
    <component base="kana" xOffset="492"/>
  </outline>
</glyph>
<glyph name="v_aa" format="1">
  <advance width="1070"/>
  <unicode hex="0906"/>
  <outline>
    <contour>
      <point x="144" y="382" type="line"/>
      <point x="283" y="382"/>
      <point x="389" y="333"/>
      <point x="389" y="208" type="curve" smooth="yes"/>
      <point x="393" y="100"/>
      <point x="315" y="40"/>
      <point x="201" y="44" type="curve" smooth="yes"/>
      <point x="128" y="44"/>
      <point x="81" y="68"/>
      <point x="21" y="110" type="curve"/>
      <point x="9" y="94" type="line"/>
      <point x="71" y="47"/>
      <point x="121" y="23"/>
      <point x="199" y="23" type="curve" smooth="yes"/>
      <point x="327" y="18"/>
      <point x="414" y="88"/>
      <point x="410" y="211" type="curve" smooth="yes"/>
      <point x="410" y="347"/>
      <point x="295" y="399"/>
      <point x="144" y="399" type="curve"/>
    </contour>
    <contour>
      <point x="612" y="710" type="line"/>
      <point x="612" y="0" type="line"/>
      <point x="634" y="0" type="line"/>
      <point x="634" y="710" type="line"/>
    </contour>
    <contour>
      <point x="879" y="710" type="line"/>
      <point x="879" y="0" type="line"/>
      <point x="901" y="0" type="line"/>
      <point x="901" y="710" type="line"/>
    </contour>
    <contour>
      <point x="617" y="399" type="line"/>
      <point x="475" y="332"/>
      <point x="364" y="370"/>
      <point x="209" y="395" type="curve"/>
      <point x="204" y="379" type="line"/>
      <point x="364" y="350"/>
      <point x="480" y="313"/>
      <point x="629" y="381" type="curve"/>
    </contour>
    <contour>
      <point x="763" y="700" type="line"/>
      <point x="763" y="722" type="line"/>
      <point x="480" y="722" type="line"/>
      <point x="480" y="700" type="line"/>
    </contour>
    <contour>
      <point x="1030" y="700" type="line"/>
      <point x="1030" y="722" type="line"/>
      <point x="747" y="722" type="line"/>
      <point x="747" y="700" type="line"/>
    </contour>
    <contour>
      <point x="144" y="403" type="curve"/>
      <point x="144" y="385" type="line"/>
      <point x="288" y="385"/>
      <point x="394" y="442"/>
      <point x="394" y="573" type="curve" smooth="yes"/>
      <point x="394" y="675"/>
      <point x="320" y="729"/>
      <point x="213" y="729" type="curve" smooth="yes"/>
      <point x="141" y="729"/>
      <point x="94" y="710"/>
      <point x="37" y="667" type="curve"/>
      <point x="51" y="651" type="line"/>
      <point x="103" y="690"/>
      <point x="145" y="709"/>
      <point x="210" y="709" type="curve" smooth="yes"/>
      <point x="306" y="709"/>
      <point x="373" y="662"/>
      <point x="372" y="571" type="curve" smooth="yes"/>
      <point x="371" y="452"/>
      <point x="274" y="403"/>
    </contour>
  </outline>
</glyph>
<glyph name="v_i" format="1">
  <advance width="562"/>
  <unicode hex="0907"/>
  <outline>
    <contour>
      <point x="397" y="711" type="line"/>
      <point x="397" y="522" type="line"/>
      <point x="419" y="522" type="line"/>
      <point x="419" y="711" type="line"/>
    </contour>
    <contour>
      <point x="573" y="700" type="line"/>
      <point x="573" y="722" type="line"/>
      <point x="-8" y="722" type="line"/>
      <point x="-8" y="700" type="line"/>
    </contour>
    <contour>
      <point x="104" y="145" type="line"/>
      <point x="343" y="-144" type="line"/>
      <point x="364" y="-126" type="line"/>
      <point x="119" y="158" type="line"/>
    </contour>
    <contour>
      <point x="147" y="267" type="move"/>
      <point x="326" y="322"/>
      <point x="488" y="344"/>
      <point x="488" y="202" type="curve" smooth="yes"/>
      <point x="488" y="88"/>
      <point x="381" y="50"/>
      <point x="251" y="50" type="curve" smooth="yes"/>
      <point x="182" y="50"/>
      <point x="105" y="59"/>
      <point x="105" y="118" type="curve" smooth="yes"/>
      <point x="105" y="129"/>
      <point x="109" y="138"/>
      <point x="119" y="138" type="curve"/>
      <point x="119" y="158" type="line"/>
      <point x="96" y="158"/>
      <point x="83" y="140"/>
      <point x="83" y="115" type="curve" smooth="yes"/>
      <point x="83" y="47"/>
      <point x="168" y="29"/>
      <point x="247" y="29" type="curve" smooth="yes"/>
      <point x="392" y="29"/>
      <point x="509" y="78"/>
      <point x="509" y="207" type="curve" smooth="yes"/>
      <point x="507" y="355"/>
      <point x="340" y="346"/>
      <point x="153" y="289" type="curve"/>
    </contour>
    <contour>
      <point x="153" y="289" type="move"/>
      <point x="106" y="324"/>
      <point x="71" y="357"/>
      <point x="71" y="415" type="curve"/>
      <point x="71" y="488"/>
      <point x="132" y="521"/>
      <point x="212" y="521" type="curve"/>
      <point x="409" y="521" type="line"/>
      <point x="409" y="541" type="line"/>
      <point x="215" y="541" type="line"/>
      <point x="121" y="541"/>
      <point x="49" y="502"/>
      <point x="49" y="417" type="curve"/>
      <point x="49" y="347"/>
      <point x="88" y="305"/>
      <point x="147" y="267" type="curve"/>
    </contour>
  </outline>
</glyph>
<glyph name="v_ii" format="1">
  <advance width="587"/>
  <unicode hex="0908"/>
  <outline>
    <contour>
      <point x="547" y="961" type="curve"/>
      <point x="554" y="978" type="line"/>
      <point x="509" y="995"/>
      <point x="470" y="1006"/>
      <point x="422" y="1006" type="curve" smooth="yes"/>
      <point x="334" y="1006"/>
      <point x="271" y="947"/>
      <point x="271" y="861" type="curve" smooth="yes"/>
      <point x="271" y="768"/>
      <point x="334" y="702"/>
      <point x="426" y="702" type="curve"/>
      <point x="426" y="722" type="line"/>
      <point x="346" y="722"/>
      <point x="292" y="782"/>
      <point x="293" y="863" type="curve" smooth="yes"/>
      <point x="294" y="937"/>
      <point x="346" y="988"/>
      <point x="420" y="988" type="curve" smooth="yes"/>
      <point x="466" y="988"/>
      <point x="504" y="978"/>
    </contour>
    <contour>
      <point x="397" y="711" type="line"/>
      <point x="397" y="522" type="line"/>
      <point x="419" y="522" type="line"/>
      <point x="419" y="711" type="line"/>
    </contour>
    <contour>
      <point x="153" y="289" type="move"/>
      <point x="106" y="324"/>
      <point x="71" y="357"/>
      <point x="71" y="415" type="curve"/>
      <point x="71" y="488"/>
      <point x="132" y="521"/>
      <point x="212" y="521" type="curve"/>
      <point x="409" y="521" type="line"/>
      <point x="409" y="541" type="line"/>
      <point x="215" y="541" type="line"/>
      <point x="121" y="541"/>
      <point x="49" y="502"/>
      <point x="49" y="417" type="curve"/>
      <point x="49" y="347"/>
      <point x="88" y="305"/>
      <point x="147" y="267" type="curve"/>
    </contour>
    <contour>
      <point x="573" y="700" type="line"/>
      <point x="573" y="722" type="line"/>
      <point x="-8" y="722" type="line"/>
      <point x="-8" y="700" type="line"/>
    </contour>
    <contour>
      <point x="147" y="267" type="move"/>
      <point x="326" y="322"/>
      <point x="488" y="344"/>
      <point x="488" y="202" type="curve" smooth="yes"/>
      <point x="488" y="88"/>
      <point x="381" y="50"/>
      <point x="251" y="50" type="curve" smooth="yes"/>
      <point x="182" y="50"/>
      <point x="105" y="59"/>
      <point x="105" y="118" type="curve" smooth="yes"/>
      <point x="105" y="129"/>
      <point x="109" y="138"/>
      <point x="119" y="138" type="curve"/>
      <point x="119" y="158" type="line"/>
      <point x="96" y="158"/>
      <point x="83" y="140"/>
      <point x="83" y="115" type="curve" smooth="yes"/>
      <point x="83" y="47"/>
      <point x="168" y="29"/>
      <point x="247" y="29" type="curve" smooth="yes"/>
      <point x="392" y="29"/>
      <point x="509" y="78"/>
      <point x="509" y="207" type="curve" smooth="yes"/>
      <point x="507" y="355"/>
      <point x="340" y="346"/>
      <point x="153" y="289" type="curve"/>
    </contour>
    <contour>
      <point x="104" y="145" type="line"/>
      <point x="343" y="-144" type="line"/>
      <point x="364" y="-126" type="line"/>
      <point x="119" y="158" type="line"/>
    </contour>
  </outline>
</glyph>
<glyph name="v_u" format="1">
  <advance width="532"/>
  <unicode hex="0909"/>
  <outline>
    <contour>
      <point x="214" y="392" type="curve"/>
      <point x="214" y="374" type="line"/>
      <point x="346" y="374"/>
      <point x="448" y="427"/>
      <point x="448" y="547" type="curve" smooth="yes"/>
      <point x="448" y="655"/>
      <point x="366" y="714"/>
      <point x="252" y="714" type="curve"/>
      <point x="245" y="700" type="line"/>
      <point x="351" y="700"/>
      <point x="427" y="645"/>
      <point x="426" y="545" type="curve" smooth="yes"/>
      <point x="425" y="438"/>
      <point x="332" y="392"/>
    </contour>
    <contour>
      <point x="214" y="371" type="line"/>
      <point x="354" y="371"/>
      <point x="464" y="316"/>
      <point x="464" y="189" type="curve" smooth="yes"/>
      <point x="470" y="74"/>
      <point x="382" y="6"/>
      <point x="260" y="11" type="curve" smooth="yes"/>
      <point x="158" y="11"/>
      <point x="95" y="64"/>
      <point x="37" y="149" type="curve"/>
      <point x="18" y="136" type="line"/>
      <point x="80" y="45"/>
      <point x="149" y="-10"/>
      <point x="258" y="-10" type="curve" smooth="yes"/>
      <point x="393" y="-16"/>
      <point x="489" y="62"/>
      <point x="485" y="192" type="curve" smooth="yes"/>
      <point x="485" y="329"/>
      <point x="366" y="388"/>
      <point x="214" y="388" type="curve"/>
    </contour>
    <contour>
      <point x="544" y="700" type="line"/>
      <point x="544" y="722" type="line"/>
      <point x="-10" y="722" type="line"/>
      <point x="-10" y="700" type="line"/>
    </contour>
  </outline>
</glyph>
<glyph name="v_uu" format="1">
  <advance width="867"/>
  <unicode hex="090A"/>
  <outline>
    <contour>
      <point x="461" y="275" type="line"/>
      <point x="484" y="361"/>
      <point x="543" y="419"/>
      <point x="630" y="419" type="curve" smooth="yes"/>
      <point x="724" y="419"/>
      <point x="791" y="355"/>
      <point x="792" y="261" type="curve" smooth="yes"/>
      <point x="793" y="160"/>
      <point x="721" y="90"/>
      <point x="619" y="90" type="curve"/>
      <point x="619" y="67" type="line"/>
      <point x="733" y="67"/>
      <point x="814" y="146"/>
      <point x="814" y="259" type="curve" smooth="yes"/>
      <point x="814" y="366"/>
      <point x="736" y="439"/>
      <point x="628" y="439" type="curve" smooth="yes"/>
      <point x="534" y="439"/>
      <point x="468" y="380"/>
      <point x="442" y="289" type="curve"/>
    </contour>
    <contour>
      <point x="214" y="392" type="curve"/>
      <point x="214" y="374" type="line"/>
      <point x="346" y="374"/>
      <point x="448" y="427"/>
      <point x="448" y="547" type="curve" smooth="yes"/>
      <point x="448" y="655"/>
      <point x="366" y="714"/>
      <point x="252" y="714" type="curve"/>
      <point x="245" y="700" type="line"/>
      <point x="351" y="700"/>
      <point x="427" y="645"/>
      <point x="426" y="545" type="curve" smooth="yes"/>
      <point x="425" y="438"/>
      <point x="332" y="392"/>
    </contour>
    <contour>
      <point x="880" y="700" type="line"/>
      <point x="880" y="722" type="line"/>
      <point x="-10" y="722" type="line"/>
      <point x="-10" y="700" type="line"/>
    </contour>
    <contour>
      <point x="214" y="371" type="line"/>
      <point x="354" y="371"/>
      <point x="464" y="316"/>
      <point x="464" y="189" type="curve" smooth="yes"/>
      <point x="470" y="74"/>
      <point x="382" y="6"/>
      <point x="260" y="11" type="curve" smooth="yes"/>
      <point x="158" y="11"/>
      <point x="95" y="64"/>
      <point x="37" y="149" type="curve"/>
      <point x="18" y="136" type="line"/>
      <point x="80" y="45"/>
      <point x="149" y="-10"/>
      <point x="258" y="-10" type="curve" smooth="yes"/>
      <point x="393" y="-16"/>
      <point x="489" y="62"/>
      <point x="485" y="192" type="curve" smooth="yes"/>
      <point x="485" y="329"/>
      <point x="366" y="388"/>
      <point x="214" y="388" type="curve"/>
    </contour>
  </outline>
</glyph>
<glyph name="v_rhu" format="1">
  <advance width="869"/>
  <unicode hex="090B"/>
  <outline>
    <contour>
      <point x="884" y="700" type="line"/>
      <point x="884" y="722" type="line"/>
      <point x="-14" y="722" type="line"/>
      <point x="-14" y="700" type="line"/>
    </contour>
    <contour>
      <point x="426" y="349" type="line"/>
      <point x="110" y="147" type="line"/>
      <point x="125" y="128" type="line"/>
      <point x="438" y="333" type="line"/>
    </contour>
    <contour>
      <point x="420" y="711" type="line"/>
      <point x="420" y="0" type="line"/>
      <point x="442" y="0" type="line"/>
      <point x="442" y="711" type="line"/>
    </contour>
    <contour>
      <point x="425" y="349" type="curve"/>
      <point x="420" y="326" type="line"/>
      <point x="445" y="319"/>
      <point x="464" y="318"/>
      <point x="490" y="318" type="curve" smooth="yes"/>
      <point x="619" y="318"/>
      <point x="718" y="364"/>
      <point x="718" y="480" type="curve" smooth="yes"/>
      <point x="718" y="518"/>
      <point x="697" y="543"/>
      <point x="660" y="543" type="curve" smooth="yes"/>
      <point x="626" y="543"/>
      <point x="609" y="521"/>
      <point x="588" y="493" type="curve"/>
      <point x="608" y="482" type="line"/>
      <point x="623" y="502"/>
      <point x="632" y="521"/>
      <point x="657" y="521" type="curve" smooth="yes"/>
      <point x="682" y="521"/>
      <point x="697" y="504"/>
      <point x="697" y="478" type="curve" smooth="yes"/>
      <point x="697" y="375"/>
      <point x="606" y="339"/>
      <point x="491" y="339" type="curve" smooth="yes"/>
      <point x="466" y="339"/>
      <point x="449" y="343"/>
    </contour>
    <contour>
      <point x="36" y="435" type="line"/>
      <point x="81" y="469"/>
      <point x="115" y="494"/>
      <point x="172" y="494" type="curve"/>
      <point x="293" y="494"/>
      <point x="330" y="388"/>
      <point x="429" y="325" type="curve"/>
      <point x="438" y="341" type="line"/>
      <point x="336" y="405"/>
      <point x="299" y="514"/>
      <point x="175" y="514" type="curve"/>
      <point x="113" y="514"/>
      <point x="73" y="490"/>
      <point x="25" y="451" type="curve"/>
    </contour>
    <contour>
      <point x="588" y="493" type="line"/>
      <point x="692" y="411"/>
      <point x="784" y="353"/>
      <point x="784" y="222" type="curve" smooth="yes"/>
      <point x="784" y="107"/>
      <point x="704" y="41"/>
      <point x="585" y="41" type="curve"/>
      <point x="589" y="23" type="line"/>
      <point x="719" y="23"/>
      <point x="803" y="98"/>
      <point x="803" y="225" type="curve"/>
      <point x="803" y="360"/>
      <point x="711" y="421"/>
      <point x="604" y="505" type="curve"/>
    </contour>
  </outline>
</glyph>
<glyph name="v_rlu" format="1">
  <advance width="749"/>
  <unicode hex="090C"/>
  <outline>
    <contour>
      <point x="756" y="700" type="line"/>
      <point x="756" y="722" type="line"/>
      <point x="-10" y="722" type="line"/>
      <point x="-10" y="700" type="line"/>
    </contour>
    <contour>
      <point x="509" y="711" type="line"/>
      <point x="509" y="494" type="line"/>
      <point x="531" y="494" type="line"/>
      <point x="531" y="711" type="line"/>
    </contour>
    <contour>
      <point x="712" y="-52" type="curve"/>
      <point x="703" y="-33" type="line"/>
      <point x="667" y="-59"/>
      <point x="636" y="-78"/>
      <point x="591" y="-78" type="curve" smooth="yes"/>
      <point x="529" y="-78"/>
      <point x="484" y="-41"/>
      <point x="484" y="19" type="curve" smooth="yes"/>
      <point x="484" y="93"/>
      <point x="547" y="124"/>
      <point x="597" y="178" type="curve" smooth="yes"/>
      <point x="650" y="234"/>
      <point x="698" y="279"/>
      <point x="698" y="356" type="curve" smooth="yes"/>
      <point x="698" y="450"/>
      <point x="621" y="501"/>
      <point x="520" y="501" type="curve" smooth="yes"/>
      <point x="394" y="501"/>
      <point x="345" y="382"/>
      <point x="345" y="241" type="curve"/>
      <point x="365" y="241" type="line"/>
      <point x="365" y="370"/>
      <point x="403" y="481"/>
      <point x="517" y="481" type="curve" smooth="yes"/>
      <point x="608" y="481"/>
      <point x="678" y="436"/>
      <point x="678" y="352" type="curve" smooth="yes"/>
      <point x="678" y="285"/>
      <point x="633" y="247"/>
      <point x="587" y="198" type="curve" smooth="yes"/>
      <point x="531" y="138"/>
      <point x="464" y="101"/>
      <point x="463" y="18" type="curve" smooth="yes"/>
      <point x="463" y="-54"/>
      <point x="515" y="-99"/>
      <point x="589" y="-99" type="curve" smooth="yes"/>
      <point x="638" y="-99"/>
      <point x="673" y="-82"/>
    </contour>
    <contour>
      <point x="271" y="40" type="line"/>
      <point x="159" y="110"/>
      <point x="68" y="181"/>
      <point x="68" y="311" type="curve" smooth="yes"/>
      <point x="68" y="409"/>
      <point x="120" y="484"/>
      <point x="213" y="484" type="curve" smooth="yes"/>
      <point x="284" y="484"/>
      <point x="337" y="457"/>
      <point x="385" y="405" type="curve"/>
      <point x="395" y="421" type="line"/>
      <point x="345" y="476"/>
      <point x="289" y="504"/>
      <point x="215" y="504" type="curve" smooth="yes"/>
      <point x="109" y="504"/>
      <point x="47" y="421"/>
      <point x="47" y="309" type="curve" smooth="yes"/>
      <point x="47" y="173"/>
      <point x="139" y="95"/>
      <point x="258" y="23" type="curve"/>
    </contour>
  </outline>
</glyph>
<glyph name="v_ae" format="1">
  <advance width="595"/>
  <unicode hex="090D"/>
  <outline>
    <contour>
      <point x="609" y="700" type="line"/>
      <point x="609" y="722" type="line"/>
      <point x="-10" y="722" type="line"/>
      <point x="-10" y="700" type="line"/>
    </contour>
    <contour>
      <point x="365" y="251" type="line"/>
      <point x="469" y="316"/>
      <point x="511" y="387"/>
      <point x="511" y="510" type="curve"/>
      <point x="511" y="711" type="line"/>
      <point x="489" y="711" type="line"/>
      <point x="489" y="506" type="line"/>
      <point x="489" y="394"/>
      <point x="452" y="328"/>
      <point x="355" y="271" type="curve"/>
    </contour>
    <contour>
      <point x="460" y="2" type="line"/>
      <point x="246" y="87"/>
      <point x="140" y="209"/>
      <point x="140" y="436" type="curve"/>
      <point x="140" y="711" type="line"/>
      <point x="118" y="711" type="line"/>
      <point x="118" y="430" type="line"/>
      <point x="118" y="192"/>
      <point x="232" y="67"/>
      <point x="457" y="-20" type="curve"/>
    </contour>
    <contour>
      <point x="470" y="994" type="line"/>
      <point x="470" y="898"/>
      <point x="412" y="849"/>
      <point x="314" y="849" type="curve" smooth="yes"/>
      <point x="217" y="849"/>
      <point x="161" y="899"/>
      <point x="161" y="994" type="curve"/>
      <point x="140" y="994" type="line"/>
      <point x="140" y="885"/>
      <point x="202" y="826"/>
      <point x="312" y="826" type="curve" smooth="yes"/>
      <point x="425" y="826"/>
      <point x="491" y="884"/>
      <point x="491" y="994" type="curve"/>
    </contour>
  </outline>
</glyph>
<glyph name="v_ea" format="1">
  <advance width="596"/>
  <unicode hex="090E"/>
  <outline>
    <contour>
      <point x="489" y="716" type="curve"/>
      <point x="511" y="716" type="line"/>
      <point x="511" y="843"/>
      <point x="419" y="893"/>
      <point x="281" y="893" type="curve" smooth="yes"/>
      <point x="154" y="893"/>
      <point x="64" y="928"/>
      <point x="64" y="1041" type="curve"/>
      <point x="43" y="1041" type="line"/>
      <point x="43" y="915"/>
      <point x="140" y="872"/>
      <point x="280" y="872" type="curve" smooth="yes"/>
      <point x="404" y="872"/>
      <point x="489" y="829"/>
    </contour>
    <component base="v_ee"/>
  </outline>
</glyph>
<glyph name="v_ee" format="1">
  <advance width="596"/>
  <unicode hex="090F"/>
  <outline>
    <contour>
      <point x="365" y="251" type="line"/>
      <point x="466" y="314"/>
      <point x="511" y="391"/>
      <point x="511" y="510" type="curve"/>
      <point x="511" y="711" type="line"/>
      <point x="489" y="711" type="line"/>
      <point x="489" y="506" type="line"/>
      <point x="489" y="398"/>
      <point x="448" y="326"/>
      <point x="355" y="271" type="curve"/>
    </contour>
    <contour>
      <point x="460" y="2" type="line"/>
      <point x="254" y="84"/>
      <point x="140" y="216"/>
      <point x="140" y="436" type="curve"/>
      <point x="140" y="711" type="line"/>
      <point x="118" y="711" type="line"/>
      <point x="118" y="430" type="line"/>
      <point x="118" y="200"/>
      <point x="240" y="64"/>
      <point x="457" y="-20" type="curve"/>
    </contour>
    <contour>
      <point x="609" y="700" type="line"/>
      <point x="609" y="722" type="line"/>
      <point x="-10" y="722" type="line"/>
      <point x="-10" y="700" type="line"/>
    </contour>
  </outline>
</glyph>
<glyph name="v_ai" format="1">
  <advance width="596"/>
  <unicode hex="0910"/>
  <outline>
    <contour>
      <point x="85" y="955" type="line"/>
      <point x="139" y="978"/>
      <point x="170" y="988"/>
      <point x="227" y="988" type="curve"/>
      <point x="393" y="988"/>
      <point x="400" y="836"/>
      <point x="496" y="703" type="curve"/>
      <point x="509" y="718" type="line"/>
      <point x="413" y="856"/>
      <point x="401" y="1008"/>
      <point x="232" y="1008" type="curve"/>
      <point x="169" y="1008"/>
      <point x="134" y="999"/>
      <point x="75" y="973" type="curve"/>
    </contour>
    <component base="v_ee"/>
  </outline>
</glyph>
<glyph name="v_ao" format="1">
  <advance width="1006"/>
  <unicode hex="0911"/>
  <outline>
    <contour>
      <point x="908" y="994" type="line"/>
      <point x="908" y="898"/>
      <point x="850" y="849"/>
      <point x="752" y="849" type="curve" smooth="yes"/>
      <point x="655" y="849"/>
      <point x="599" y="899"/>
      <point x="599" y="994" type="curve"/>
      <point x="578" y="994" type="line"/>
      <point x="578" y="885"/>
      <point x="640" y="826"/>
      <point x="750" y="826" type="curve" smooth="yes"/>
      <point x="863" y="826"/>
      <point x="929" y="884"/>
      <point x="929" y="994" type="curve"/>
    </contour>
    <component base="v_aa"/>
  </outline>
</glyph>
<glyph name="v_oa" format="1">
  <advance width="1014"/>
  <unicode hex="0912"/>
  <outline>
    <contour>
      <point x="878" y="716" type="curve"/>
      <point x="900" y="716" type="line"/>
      <point x="900" y="843"/>
      <point x="808" y="893"/>
      <point x="670" y="893" type="curve" smooth="yes"/>
      <point x="543" y="893"/>
      <point x="453" y="928"/>
      <point x="453" y="1041" type="curve"/>
      <point x="432" y="1041" type="line"/>
      <point x="432" y="915"/>
      <point x="529" y="872"/>
      <point x="669" y="872" type="curve" smooth="yes"/>
      <point x="793" y="872"/>
      <point x="878" y="829"/>
    </contour>
    <component base="v_aa"/>
    <component base="v_aa"/>
  </outline>
</glyph>
<glyph name="v_o" format="1">
  <advance width="1012"/>
  <unicode hex="0913"/>
  <outline>
    <contour>
      <point x="528" y="975"/>
      <point x="559" y="989"/>
      <point x="610" y="989" type="curve"/>
      <point x="767" y="989"/>
      <point x="808" y="856"/>
      <point x="878" y="710" type="curve"/>
      <point x="897" y="716" type="line"/>
      <point x="827" y="869"/>
      <point x="777" y="1011"/>
      <point x="611" y="1011" type="curve"/>
      <point x="557" y="1011"/>
      <point x="522" y="997"/>
      <point x="474" y="972" type="curve"/>
      <point x="483" y="952" type="line"/>
    </contour>
    <contour>
      <point x="879" y="710" type="line"/>
      <point x="879" y="0" type="line"/>
      <point x="901" y="0" type="line"/>
      <point x="901" y="710" type="line"/>
    </contour>
    <contour>
      <point x="1030" y="700" type="line"/>
      <point x="1030" y="722" type="line"/>
      <point x="747" y="722" type="line"/>
      <point x="747" y="700" type="line"/>
    </contour>
    <contour>
      <point x="144" y="382" type="line"/>
      <point x="283" y="382"/>
      <point x="389" y="333"/>
      <point x="389" y="208" type="curve" smooth="yes"/>
      <point x="393" y="100"/>
      <point x="315" y="40"/>
      <point x="201" y="44" type="curve" smooth="yes"/>
      <point x="128" y="44"/>
      <point x="81" y="68"/>
      <point x="21" y="110" type="curve"/>
      <point x="9" y="94" type="line"/>
      <point x="71" y="47"/>
      <point x="121" y="23"/>
      <point x="199" y="23" type="curve" smooth="yes"/>
      <point x="327" y="18"/>
      <point x="414" y="88"/>
      <point x="410" y="211" type="curve" smooth="yes"/>
      <point x="410" y="347"/>
      <point x="295" y="399"/>
      <point x="144" y="399" type="curve"/>
    </contour>
    <contour>
      <point x="144" y="403" type="curve"/>
      <point x="144" y="385" type="line"/>
      <point x="288" y="385"/>
      <point x="394" y="442"/>
      <point x="394" y="573" type="curve" smooth="yes"/>
      <point x="394" y="675"/>
      <point x="320" y="729"/>
      <point x="213" y="729" type="curve" smooth="yes"/>
      <point x="141" y="729"/>
      <point x="94" y="710"/>
      <point x="37" y="667" type="curve"/>
      <point x="51" y="651" type="line"/>
      <point x="103" y="690"/>
      <point x="145" y="709"/>
      <point x="210" y="709" type="curve" smooth="yes"/>
      <point x="306" y="709"/>
      <point x="373" y="662"/>
      <point x="372" y="571" type="curve" smooth="yes"/>
      <point x="371" y="452"/>
      <point x="274" y="403"/>
    </contour>
    <contour>
      <point x="612" y="710" type="line"/>
      <point x="612" y="0" type="line"/>
      <point x="634" y="0" type="line"/>
      <point x="634" y="710" type="line"/>
    </contour>
    <contour>
      <point x="763" y="700" type="line"/>
      <point x="763" y="722" type="line"/>
      <point x="480" y="722" type="line"/>
      <point x="480" y="700" type="line"/>
    </contour>
    <contour>
      <point x="617" y="399" type="line"/>
      <point x="475" y="332"/>
      <point x="364" y="370"/>
      <point x="209" y="395" type="curve"/>
      <point x="204" y="379" type="line"/>
      <point x="364" y="350"/>
      <point x="480" y="313"/>
      <point x="629" y="381" type="curve"/>
    </contour>
  </outline>
</glyph>
<glyph name="c_gha" format="1">
  <advance width="556"/>
  <unicode hex="0918"/>
  <outline>
    <contour>
      <point x="270" y="452" type="curve"/>
      <point x="270" y="469" type="line"/>
      <point x="139" y="469"/>
      <point x="37" y="415"/>
      <point x="38" y="309" type="curve" smooth="yes"/>
      <point x="34" y="210"/>
      <point x="121" y="165"/>
      <point x="241" y="165" type="curve" smooth="yes"/>
      <point x="329" y="165"/>
      <point x="390" y="193"/>
      <point x="436" y="261" type="curve"/>
      <point x="417" y="269" type="line"/>
      <point x="376" y="209"/>
      <point x="320" y="186"/>
      <point x="239" y="186" type="curve" smooth="yes"/>
      <point x="129" y="186"/>
      <point x="59" y="224"/>
      <point x="59" y="306" type="curve" smooth="yes"/>
      <point x="59" y="402"/>
      <point x="151" y="452"/>
    </contour>
    <contour>
      <point x="270" y="473" type="line"/>
      <point x="149" y="473"/>
      <point x="52.89745202" y="504.408934364"/>
      <point x="52" y="578" type="curve" smooth="yes"/>
      <point x="51" y="657"/>
      <point x="134" y="700"/>
      <point x="250" y="700" type="curve"/>
      <point x="243" y="714" type="line"/>
      <point x="119" y="714"/>
      <point x="30" y="667"/>
      <point x="30" y="580" type="curve" smooth="yes"/>
      <point x="30.0" y="493.321167883"/>
      <point x="135" y="455"/>
      <point x="270" y="455" type="curve"/>
    </contour>
    <contour>
      <point x="-10" y="700" type="line"/>
      <point x="314" y="700" type="line"/>
      <point x="314" y="722" type="line"/>
      <point x="-10" y="722" type="line"/>
    </contour>
    <component base="kana" xOffset="295"/>
  </outline>
</glyph>
<glyph name="c_ca" format="1">
  <advance width="682"/>
  <unicode hex="091A"/>
  <outline>
    <contour>
      <point x="67" y="417" type="line"/>
      <point x="406" y="417" type="line"/>
      <point x="406" y="439" type="line"/>
      <point x="67" y="439" type="line"/>
    </contour>
    <contour>
      <point x="433" y="700" type="line"/>
      <point x="433" y="722" type="line"/>
      <point x="-10" y="722" type="line"/>
      <point x="-10" y="700" type="line"/>
    </contour>
    <contour>
      <point x="406" y="417" type="curve"/>
      <point x="406" y="434" type="line"/>
      <point x="270" y="434"/>
      <point x="135" y="370"/>
      <point x="135" y="248" type="curve" smooth="yes"/>
      <point x="135" y="147"/>
      <point x="236" y="96"/>
      <point x="342" y="96" type="curve" smooth="yes"/>
      <point x="439" y="96"/>
      <point x="527" y="152"/>
      <point x="562" y="242" type="curve"/>
      <point x="543" y="255" type="line"/>
      <point x="511" y="171"/>
      <point x="430" y="117"/>
      <point x="340" y="117" type="curve" smooth="yes"/>
      <point x="249" y="117"/>
      <point x="158" y="164"/>
      <point x="158" y="247" type="curve" smooth="yes"/>
      <point x="158" y="360"/>
      <point x="280" y="417"/>
    </contour>
    <component base="kana" xOffset="421"/>
  </outline>
</glyph>
<glyph name="c_cha" format="1">
  <advance width="662"/>
  <unicode hex="091B"/>
  <outline>
    <contour>
      <point x="476" y="700" type="line"/>
      <point x="476" y="465" type="line"/>
      <point x="498" y="465" type="line"/>
      <point x="498" y="700" type="line"/>
    </contour>
    <contour>
      <point x="270" y="401" type="curve"/>
      <point x="270" y="418" type="line"/>
      <point x="153" y="418"/>
      <point x="37" y="363"/>
      <point x="38" y="258" type="curve" smooth="yes"/>
      <point x="33.0" y="140.0"/>
      <point x="160" y="59"/>
      <point x="335" y="59" type="curve" smooth="yes"/>
      <point x="485" y="59"/>
      <point x="629.0" y="117.0"/>
      <point x="629" y="290" type="curve"/>
      <point x="629" y="387"/>
      <point x="574" y="479"/>
      <point x="485" y="479" type="curve"/>
      <point x="437" y="479"/>
      <point x="386" y="444"/>
      <point x="386" y="395" type="curve"/>
      <point x="386" y="299"/>
      <point x="495" y="274"/>
      <point x="612" y="291" type="curve"/>
      <point x="612" y="313" type="line"/>
      <point x="506" y="297"/>
      <point x="407" y="314"/>
      <point x="407" y="395" type="curve"/>
      <point x="407" y="435"/>
      <point x="445" y="457"/>
      <point x="485" y="457" type="curve"/>
      <point x="562" y="457"/>
      <point x="607" y="375"/>
      <point x="607" y="290" type="curve"/>
      <point x="607.0" y="128.0"/>
      <point x="464" y="80"/>
      <point x="333" y="80" type="curve" smooth="yes"/>
      <point x="176" y="80"/>
      <point x="59.0" y="149.0"/>
      <point x="59" y="255" type="curve" smooth="yes"/>
      <point x="59" y="350"/>
      <point x="164" y="401"/>
    </contour>
    <contour>
      <point x="270" y="422" type="line"/>
      <point x="149" y="422"/>
      <point x="53.061218993" y="467.633224725"/>
      <point x="52" y="578" type="curve" smooth="yes"/>
      <point x="51" y="657"/>
      <point x="134" y="700"/>
      <point x="250" y="700" type="curve"/>
      <point x="243" y="714" type="line"/>
      <point x="119" y="714"/>
      <point x="30" y="667"/>
      <point x="30" y="580" type="curve" smooth="yes"/>
      <point x="30.0" y="457.748502994"/>
      <point x="135" y="404"/>
      <point x="270" y="404" type="curve"/>
    </contour>
    <contour>
      <point x="-10" y="700" type="line"/>
      <point x="675" y="700" type="line"/>
      <point x="675" y="722" type="line"/>
      <point x="-10" y="722" type="line"/>
    </contour>
  </outline>
</glyph>
<glyph name="c_ja" format="1">
  <advance width="682"/>
  <unicode hex="091C"/>
  <outline>
    <contour>
      <point x="213" y="417" type="line"/>
      <point x="353" y="417"/>
      <point x="463" y="370"/>
      <point x="463" y="245" type="curve" smooth="yes"/>
      <point x="463" y="152"/>
      <point x="389" y="117"/>
      <point x="279" y="117" type="curve" smooth="yes"/>
      <point x="179" y="117"/>
      <point x="111" y="162"/>
      <point x="76" y="255" type="curve"/>
      <point x="57" y="242" type="line"/>
      <point x="96" y="143"/>
      <point x="170" y="96"/>
      <point x="277" y="96" type="curve" smooth="yes"/>
      <point x="393" y="96"/>
      <point x="484" y="134"/>
      <point x="484" y="248" type="curve" smooth="yes"/>
      <point x="484" y="383"/>
      <point x="364" y="434"/>
      <point x="213" y="434" type="curve"/>
    </contour>
    <contour>
      <point x="552" y="417" type="line"/>
      <point x="552" y="439" type="line"/>
      <point x="213" y="439" type="line"/>
      <point x="213" y="417" type="line"/>
    </contour>
    <contour>
      <point x="529" y="700" type="line"/>
      <point x="529" y="722" type="line"/>
      <point x="-10" y="722" type="line"/>
      <point x="-10" y="700" type="line"/>
    </contour>
    <component base="kana" xOffset="421"/>
  </outline>
</glyph>
<glyph name="c_nya" format="1">
  <advance width="682"/>
  <unicode hex="091E"/>
  <outline>
    <contour>
      <point x="529" y="700" type="line"/>
      <point x="529" y="722" type="line"/>
      <point x="-10" y="722" type="line"/>
      <point x="-10" y="700" type="line"/>
    </contour>
    <contour>
      <point x="224" y="124" type="curve"/>
      <point x="369" y="124"/>
      <point x="401" y="233"/>
      <point x="401" y="318" type="curve" smooth="yes"/>
      <point x="401" y="400"/>
      <point x="371" y="504"/>
      <point x="229" y="504" type="curve"/>
      <point x="186" y="504"/>
      <point x="127" y="484"/>
      <point x="77" y="430" type="curve"/>
      <point x="90" y="418" type="line"/>
      <point x="136" y="465"/>
      <point x="190" y="486"/>
      <point x="230" y="486" type="curve" smooth="yes"/>
      <point x="302" y="486"/>
      <point x="379" y="452"/>
      <point x="380" y="318" type="curve" smooth="yes"/>
      <point x="381" y="178"/>
      <point x="299" y="142"/>
      <point x="225" y="142" type="curve" smooth="yes"/>
      <point x="175" y="142"/>
      <point x="95" y="162"/>
      <point x="50" y="237" type="curve"/>
      <point x="39" y="225" type="line"/>
      <point x="86" y="144"/>
      <point x="171" y="124"/>
    </contour>
    <contour>
      <point x="391" y="306" type="line"/>
      <point x="451" y="304"/>
      <point x="496" y="312"/>
      <point x="555" y="339" type="curve"/>
      <point x="552" y="361" type="line"/>
      <point x="490" y="331"/>
      <point x="450" y="325"/>
      <point x="391" y="326" type="curve"/>
    </contour>
    <component base="kana" xOffset="421"/>
  </outline>
</glyph>
<glyph name="c_ttha" format="1">
  <advance width="549"/>
  <unicode hex="0920"/>
  <outline>
    <contour>
      <point x="559" y="700" type="line"/>
      <point x="559" y="722" type="line"/>
      <point x="-10" y="722" type="line"/>
      <point x="-10" y="700" type="line"/>
    </contour>
    <contour>
      <point x="336" y="702" type="line"/>
      <point x="336" y="513" type="line"/>
      <point x="358" y="513" type="line"/>
      <point x="358" y="702" type="line"/>
    </contour>
    <contour>
      <point x="343" y="535" type="curve"/>
      <point x="154.706276418" y="511.768956181"/>
      <point x="4" y="411"/>
      <point x="4" y="248" type="curve" smooth="yes"/>
      <point x="4" y="105"/>
      <point x="118.606694561" y="-15.0"/>
      <point x="305" y="-15" type="curve" smooth="yes"/>
      <point x="461.820895522" y="-15.0"/>
      <point x="542" y="105"/>
      <point x="542" y="238" type="curve"/>
      <point x="542" y="372"/>
      <point x="479.962015013" y="487.729924022"/>
    </contour>
    <contour>
      <point x="520" y="238" type="curve"/>
      <point x="520" y="117"/>
      <point x="450.335195531" y="7.0"/>
      <point x="305" y="7" type="curve" smooth="yes"/>
      <point x="131.428571429" y="7.0"/>
      <point x="26" y="117"/>
      <point x="26" y="248" type="curve" smooth="yes"/>
      <point x="26" y="398"/>
      <point x="167.913054776" y="489.406723693"/>
      <point x="343" y="513" type="curve"/>
      <point x="468.557874858" y="465.760403519"/>
      <point x="520" y="361"/>
    </contour>
  </outline>
</glyph>
<glyph name="c_nna" format="1">
  <advance width="810"/>
  <unicode hex="0923"/>
  <outline>
    <contour>
      <point x="591" y="700" type="line"/>
      <point x="591" y="722" type="line"/>
      <point x="-10" y="722" type="line"/>
      <point x="-10" y="700" type="line"/>
    </contour>
    <contour>
      <point x="311" y="186" type="curve"/>
      <point x="197" y="186"/>
      <point x="134" y="249"/>
      <point x="134" y="363" type="curve"/>
      <point x="134" y="710" type="line"/>
      <point x="112" y="710" type="line"/>
      <point x="112" y="366" type="line"/>
      <point x="112" y="236"/>
      <point x="182" y="163"/>
      <point x="311" y="163" type="curve"/>
      <point x="440" y="163"/>
      <point x="509" y="236"/>
      <point x="509" y="366" type="curve"/>
      <point x="509" y="710" type="line"/>
      <point x="487" y="710" type="line"/>
      <point x="487" y="363" type="line"/>
      <point x="487" y="249"/>
      <point x="425" y="186"/>
    </contour>
    <component base="kana" xOffset="549"/>
  </outline>
</glyph>
<glyph name="padeva" format="1">
  <advance width="637"/>
  <unicode hex="092A"/>
  <outline>
    <contour>
      <point x="509" y="291" type="line"/>
      <point x="141" y="718" type="line"/>
      <point x="123" y="706" type="line"/>
      <point x="495" y="275" type="line"/>
    </contour>
    <contour>
      <point x="489" y="711" type="line"/>
      <point x="489" y="0" type="line"/>
      <point x="511" y="0" type="line"/>
      <point x="511" y="711" type="line"/>
    </contour>
    <contour>
      <point x="638" y="700" type="line"/>
      <point x="638" y="722" type="line"/>
      <point x="0" y="722" type="line"/>
      <point x="0" y="700" type="line"/>
    </contour>
    <contour>
      <point x="497" y="298" type="line"/>
      <point x="463" y="221"/>
      <point x="404" y="186"/>
      <point x="320" y="186" type="curve" smooth="yes"/>
      <point x="214" y="186"/>
      <point x="144" y="257"/>
      <point x="144" y="363" type="curve"/>
      <point x="144" y="710" type="line"/>
      <point x="122" y="710" type="line"/>
      <point x="122" y="366" type="line"/>
      <point x="122" y="245"/>
      <point x="197" y="163"/>
      <point x="316" y="163" type="curve" smooth="yes"/>
      <point x="407" y="163"/>
      <point x="475" y="202"/>
      <point x="509" y="286" type="curve"/>
    </contour>
    <contour>
      <point x="488.0" y="660.0" type="move" name="DVAnchor3"/>
    </contour>
  </outline>
</glyph>
<glyph name="c_pha" format="1">
  <advance width="921"/>
  <unicode hex="092B"/>
  <outline>
    <contour>
      <point x="504" y="304" type="line"/>
      <point x="529" y="394"/>
      <point x="595" y="452"/>
      <point x="687" y="452" type="curve" smooth="yes"/>
      <point x="786" y="452"/>
      <point x="862" y="393"/>
      <point x="862" y="298" type="curve" smooth="yes"/>
      <point x="862" y="204"/>
      <point x="796" y="138"/>
      <point x="702" y="138" type="curve" smooth="yes"/>
      <point x="653" y="138"/>
      <point x="612" y="148"/>
      <point x="575" y="179" type="curve"/>
      <point x="567" y="161" type="line"/>
      <point x="608" y="129"/>
      <point x="650" y="119"/>
      <point x="702" y="119" type="curve" smooth="yes"/>
      <point x="808" y="119"/>
      <point x="883" y="192"/>
      <point x="883" y="297" type="curve" smooth="yes"/>
      <point x="883" y="404"/>
      <point x="798" y="473"/>
      <point x="687" y="473" type="curve" smooth="yes"/>
      <point x="584" y="473"/>
      <point x="512" y="406"/>
      <point x="487" y="304" type="curve"/>
    </contour>
    <contour>
      <point x="931" y="700" type="line"/>
      <point x="931" y="722" type="line"/>
      <point x="-10" y="722" type="line"/>
      <point x="-10" y="700" type="line"/>
    </contour>
    <component base="c_pa" xOffset="7"/>
    <contour>
      <point x="545.0" y="0.0" type="move" name="DVAnchor0"/>
    </contour>
    <contour>
      <point x="494.0" y="660.0" type="move" name="DVAnchor3"/>
    </contour>
  </outline>
</glyph>
<glyph name="c_lla" format="1">
  <advance width="698"/>
  <unicode hex="0933"/>
  <outline>
    <contour>
      <point x="733" y="700" type="line"/>
      <point x="733" y="722" type="line"/>
      <point x="-10" y="722" type="line"/>
      <point x="-10" y="700" type="line"/>
      <point x="486" y="700" type="line"/>
      <point x="486" y="428" type="line"/>
      <point x="508" y="428" type="line"/>
      <point x="508" y="700" type="line"/>
    </contour>
    <contour>
      <point x="213" y="142" type="curve"/>
      <point x="106.0" y="142.0"/>
      <point x="58.0" y="203.75"/>
      <point x="58" y="294" type="curve" smooth="yes"/>
      <point x="58.0" y="371.857988166"/>
      <point x="105.0" y="423.0"/>
      <point x="202.0" y="423.0" type="curve" smooth="yes"/>
      <point x="274" y="423"/>
      <point x="317" y="402"/>
      <point x="368" y="351" type="curve"/>
      <point x="378" y="367" type="line"/>
      <point x="325" y="421"/>
      <point x="279" y="443"/>
      <point x="204.0" y="443.0" type="curve" smooth="yes"/>
      <point x="93.0" y="443.0"/>
      <point x="37.0" y="383.706806283"/>
      <point x="37" y="292" type="curve" smooth="yes"/>
      <point x="37.0" y="189.886255924"/>
      <point x="92.0" y="121.0"/>
      <point x="210" y="121" type="curve"/>
      <point x="311.0" y="121.0"/>
      <point x="343.841989445" y="186.717869827"/>
      <point x="351" y="275" type="curve" smooth="yes"/>
      <point x="358.048817936" y="358.019411243"/>
      <point x="395.0" y="418.0"/>
      <point x="493.0" y="418.0" type="curve" smooth="yes"/>
      <point x="590.0" y="418.0"/>
      <point x="631.0" y="361.404494382"/>
      <point x="631" y="280" type="curve"/>
      <point x="631.0" y="190.664921466"/>
      <point x="584.0" y="129.0"/>
      <point x="479" y="129" type="curve" smooth="yes"/>
      <point x="409" y="129"/>
      <point x="371" y="157"/>
      <point x="320" y="205" type="curve"/>
      <point x="309" y="185" type="line"/>
      <point x="364" y="136"/>
      <point x="403" y="109"/>
      <point x="477" y="109" type="curve" smooth="yes"/>
      <point x="597.0" y="109.0"/>
      <point x="653.0" y="179.0"/>
      <point x="653" y="284" type="curve"/>
      <point x="653.0" y="376.326530612"/>
      <point x="606.0" y="440.0"/>
      <point x="498" y="440" type="curve" smooth="yes"/>
      <point x="385.0" y="440.0"/>
      <point x="338.279706473" y="370.680465524"/>
      <point x="331" y="272" type="curve" smooth="yes"/>
      <point x="325.637221999" y="197.687219127"/>
      <point x="300.0" y="142.0"/>
    </contour>
  </outline>
</glyph>
<glyph name="vadeva" format="1">
  <advance width="554"/>
  <unicode hex="0935"/>
  <outline>
    <contour>
      <point x="418" y="302" type="line"/>
      <point x="390" y="219"/>
      <point x="322" y="154"/>
      <point x="222" y="154" type="curve" smooth="yes"/>
      <point x="117" y="154"/>
      <point x="58" y="231"/>
      <point x="58" y="325" type="curve" smooth="yes"/>
      <point x="58" y="413"/>
      <point x="116" y="476"/>
      <point x="202" y="476" type="curve" smooth="yes"/>
      <point x="240" y="476"/>
      <point x="284" y="463"/>
      <point x="331" y="434" type="curve"/>
      <point x="337" y="453" type="line"/>
      <point x="288" y="482"/>
      <point x="242" y="495"/>
      <point x="202" y="495" type="curve" smooth="yes"/>
      <point x="104" y="495"/>
      <point x="37" y="421"/>
      <point x="37" y="327" type="curve" smooth="yes"/>
      <point x="37" y="223"/>
      <point x="102" y="133"/>
      <point x="225" y="133" type="curve" smooth="yes"/>
      <point x="335" y="133"/>
      <point x="407" y="207"/>
      <point x="435" y="302" type="curve"/>
    </contour>
    <contour>
      <point x="416" y="710" type="line"/>
      <point x="416" y="0" type="line"/>
      <point x="438" y="0" type="line"/>
      <point x="438" y="710" type="line"/>
    </contour>
    <contour>
      <point x="567" y="700" type="line"/>
      <point x="567" y="722" type="line"/>
      <point x="284" y="722" type="line"/>
      <point x="284" y="700" type="line"/>
    </contour>
    <contour>
      <point x="405.0" y="660.0" type="move" name="DVAnchor3"/>
    </contour>
  </outline>
</glyph>
<glyph name="dagger" format="1">
  <advance width="351"/>
  <unicode hex="2020"/>
  <outline>
    <contour>
      <point x="168" y="722" type="line"/>
      <point x="168" y="-57" type="line"/>
      <point x="190" y="-57" type="line"/>
      <point x="190" y="722" type="line"/>
    </contour>
    <contour>
      <point x="341" y="549" type="line"/>
      <point x="341" y="571" type="line"/>
      <point x="18" y="571" type="line"/>
      <point x="18" y="549" type="line"/>
    </contour>
  </outline>
</glyph>
<glyph name="ellipsis" format="1">
  <advance width="550"/>
  <unicode hex="2026"/>
  <outline>
    <contour>
      <point x="432" y="46" type="line"/>
      <point x="432" y="0" type="line"/>
      <point x="477" y="0" type="line"/>
      <point x="477" y="46" type="line"/>
    </contour>
    <contour>
      <point x="296" y="46" type="line"/>
      <point x="251" y="46" type="line"/>
      <point x="251" y="0" type="line"/>
      <point x="296" y="0" type="line"/>
    </contour>
    <contour>
      <point x="118" y="0" type="line"/>
      <point x="118" y="46" type="line"/>
      <point x="73" y="46" type="line"/>
      <point x="73" y="0" type="line"/>
    </contour>
  </outline>
</glyph>
<glyph name="trademark" format="1">
  <advance width="733"/>
  <unicode hex="2122"/>
  <outline>
    <contour>
      <point x="604" y="722" type="line"/>
      <point x="490" y="388" type="line"/>
      <point x="515" y="388" type="line"/>
      <point x="626" y="722" type="line"/>
    </contour>
    <contour>
      <point x="397" y="722" type="line"/>
      <point x="375" y="722" type="line"/>
      <point x="343" y="388" type="line"/>
      <point x="365" y="388" type="line"/>
    </contour>
    <contour>
      <point x="508" y="388" type="line"/>
      <point x="397" y="722" type="line"/>
      <point x="375" y="722" type="line"/>
      <point x="484" y="388" type="line"/>
    </contour>
    <contour>
      <point x="604" y="722" type="line"/>
      <point x="649" y="388" type="line"/>
      <point x="671" y="388" type="line"/>
      <point x="626" y="722" type="line"/>
    </contour>
    <contour>
      <point x="160" y="710" type="line"/>
      <point x="160" y="388" type="line"/>
      <point x="182" y="388" type="line"/>
      <point x="182" y="710" type="line"/>
    </contour>
    <contour>
      <point x="300" y="700" type="line"/>
      <point x="300" y="722" type="line"/>
      <point x="43" y="722" type="line"/>
      <point x="43" y="700" type="line"/>
    </contour>
  </outline>
</glyph>
<glyph name="Ssmall" format="1">
  <advance width="440"/>
  <outline>
    <contour>
      <point x="42" y="34" type="line"/>
      <point x="98" y="6"/>
      <point x="146" y="-10"/>
      <point x="209" y="-10" type="curve" smooth="yes"/>
      <point x="311" y="-10"/>
      <point x="396" y="29"/>
      <point x="396" y="120" type="curve" smooth="yes"/>
      <point x="396" y="214"/>
      <point x="312" y="252"/>
      <point x="221" y="290" type="curve" smooth="yes"/>
      <point x="153" y="317"/>
      <point x="90" y="345"/>
      <point x="90" y="415" type="curve" smooth="yes"/>
      <point x="90" y="486"/>
      <point x="149" y="524"/>
      <point x="225" y="524" type="curve" smooth="yes"/>
      <point x="282" y="524"/>
      <point x="327" y="509"/>
      <point x="376" y="480" type="curve"/>
      <point x="386" y="496" type="line"/>
      <point x="334" y="527"/>
      <point x="288" y="544"/>
      <point x="228" y="544" type="curve" smooth="yes"/>
      <point x="138" y="544"/>
      <point x="68" y="498"/>
      <point x="68" y="414" type="curve" smooth="yes"/>
      <point x="68" y="339"/>
      <point x="130" y="304"/>
      <point x="202" y="274" type="curve" smooth="yes"/>
      <point x="289" y="238"/>
      <point x="374" y="208"/>
      <point x="374" y="118" type="curve" smooth="yes"/>
      <point x="374" y="41"/>
      <point x="299" y="11"/>
      <point x="212" y="11" type="curve" smooth="yes"/>
      <point x="152" y="11"/>
      <point x="105" y="25"/>
      <point x="53" y="55" type="curve"/>
    </contour>
  </outline>
</glyph>
<glyph name=".004" format="1">
  <advance width="618"/>
  <outline>
    <contour>
      <point x="140" y="-300" type="line"/>
      <point x="140" y="533" type="line"/>
      <point x="118" y="533" type="line"/>
      <point x="118" y="-300" type="line"/>
    </contour>
    <component base="u"/>
  </outline>
</glyph>
<glyph name="c_da" format="1">
  <advance width="587"/>
  <outline>
    <contour>
      <point x="436" y="522" type="line" smooth="yes"/>
      <point x="436" y="544" type="line"/>
      <point x="335" y="544" type="line" smooth="yes"/>
      <point x="191" y="544"/>
      <point x="88" y="470"/>
      <point x="88" y="333" type="curve" smooth="yes"/>
      <point x="88" y="203"/>
      <point x="175" y="124"/>
      <point x="307" y="124" type="curve" smooth="yes"/>
      <point x="404" y="124"/>
      <point x="484" y="151"/>
      <point x="484" y="236" type="curve" smooth="yes"/>
      <point x="484" y="284"/>
      <point x="465" y="321"/>
      <point x="421" y="321" type="curve" smooth="yes"/>
      <point x="373" y="321"/>
      <point x="354" y="279"/>
      <point x="354" y="226" type="curve" smooth="yes"/>
      <point x="354" y="97"/>
      <point x="421" y="15"/>
      <point x="536" y="-46" type="curve"/>
      <point x="550" y="-28" type="line"/>
      <point x="440" y="28"/>
      <point x="376" y="104"/>
      <point x="376" y="226" type="curve" smooth="yes"/>
      <point x="376" y="266"/>
      <point x="386" y="299"/>
      <point x="421" y="299" type="curve" smooth="yes"/>
      <point x="452" y="299"/>
      <point x="462" y="271"/>
      <point x="462" y="236" type="curve" smooth="yes"/>
      <point x="462" y="163"/>
      <point x="391" y="146"/>
      <point x="307" y="146" type="curve" smooth="yes"/>
      <point x="189" y="146"/>
      <point x="110" y="217"/>
      <point x="110" y="333" type="curve" smooth="yes"/>
      <point x="110" y="456"/>
      <point x="204" y="522"/>
      <point x="335" y="522" type="curve" smooth="yes"/>
    </contour>
    <contour>
      <point x="593" y="700" type="line"/>
      <point x="593" y="722" type="line"/>
      <point x="0" y="722" type="line"/>
      <point x="0" y="700" type="line"/>
    </contour>
    <contour>
      <point x="425" y="711" type="line"/>
      <point x="425" y="522" type="line"/>
      <point x="447" y="522" type="line"/>
      <point x="447" y="711" type="line"/>
    </contour>
  </outline>
</glyph>
<glyph name="c_dda" format="1">
  <advance width="563"/>
  <outline>
    <contour>
      <point x="152" y="289" type="move"/>
      <point x="105" y="324"/>
      <point x="70" y="357"/>
      <point x="70" y="415" type="curve"/>
      <point x="70" y="488"/>
      <point x="131" y="521"/>
      <point x="211" y="521" type="curve"/>
      <point x="408" y="521" type="line"/>
      <point x="408" y="541" type="line"/>
      <point x="214" y="541" type="line"/>
      <point x="120" y="541"/>
      <point x="48" y="503"/>
      <point x="48" y="417" type="curve"/>
      <point x="48" y="347"/>
      <point x="86" y="305"/>
      <point x="146" y="267" type="curve"/>
    </contour>
    <contour>
      <point x="572" y="700" type="line"/>
      <point x="572" y="722" type="line"/>
      <point x="-9" y="722" type="line"/>
      <point x="-9" y="700" type="line"/>
    </contour>
    <contour>
      <point x="146" y="267" type="move"/>
      <point x="326" y="322"/>
      <point x="487" y="344"/>
      <point x="487" y="202" type="curve" smooth="yes"/>
      <point x="487" y="92"/>
      <point x="393" y="43"/>
      <point x="272" y="43" type="curve" smooth="yes"/>
      <point x="171" y="43"/>
      <point x="104" y="86"/>
      <point x="35" y="160" type="curve"/>
      <point x="17" y="147" type="line"/>
      <point x="91" y="69"/>
      <point x="160" y="22"/>
      <point x="268" y="22" type="curve" smooth="yes"/>
      <point x="405" y="22"/>
      <point x="508" y="81"/>
      <point x="508" y="207" type="curve" smooth="yes"/>
      <point x="506" y="356"/>
      <point x="339" y="346"/>
      <point x="152" y="289" type="curve"/>
    </contour>
    <contour>
      <point x="396" y="711" type="line"/>
      <point x="396" y="522" type="line"/>
      <point x="418" y="522" type="line"/>
      <point x="418" y="711" type="line"/>
    </contour>
    <contour>
      <point x="314" y="45" type="move" name="DVAnchor0"/>
    </contour>
    <contour>
      <point x="449" y="660" type="move" name="DVAnchor3"/>
    </contour>
  </outline>
</glyph>
<glyph name="c_dha" format="1">
  <advance width="654"/>
  <outline>
    <contour>
      <point x="285" y="525" type="line"/>
      <point x="323" y="538"/>
      <point x="338" y="569"/>
      <point x="338" y="610" type="curve" smooth="yes"/>
      <point x="338" y="671"/>
      <point x="290" y="701"/>
      <point x="225.0" y="701.0" type="curve" smooth="yes"/>
      <point x="153" y="701"/>
      <point x="106" y="658"/>
      <point x="105" y="587" type="curve" smooth="yes"/>
      <point x="104" y="469"/>
      <point x="220" y="441"/>
      <point x="357" y="441" type="curve"/>
      <point x="357" y="423" type="line"/>
      <point x="208" y="423"/>
      <point x="83" y="456"/>
      <point x="83" y="586" type="curve" smooth="yes"/>
      <point x="83" y="670"/>
      <point x="141" y="721"/>
      <point x="227.0" y="721.0" type="curve" smooth="yes"/>
      <point x="303" y="721"/>
      <point x="358" y="683"/>
      <point x="358" y="612" type="curve" smooth="yes"/>
      <point x="358" y="562"/>
      <point x="340" y="525"/>
      <point x="294" y="509" type="curve"/>
    </contour>
    <contour>
      <point x="670" y="700" type="line"/>
      <point x="519" y="700" type="line"/>
      <point x="519" y="722" type="line"/>
      <point x="670" y="722" type="line"/>
    </contour>
    <contour>
      <point x="357" y="423" type="line"/>
      <point x="217" y="423"/>
      <point x="98" y="393"/>
      <point x="97" y="271" type="curve" smooth="yes"/>
      <point x="96" y="171"/>
      <point x="185" y="130"/>
      <point x="297" y="130" type="curve" smooth="yes"/>
      <point x="409" y="130"/>
      <point x="482" y="189"/>
      <point x="524" y="293" type="curve"/>
      <point x="538" y="277" type="line"/>
      <point x="495" y="167"/>
      <point x="415" y="108"/>
      <point x="295" y="108" type="curve" smooth="yes"/>
      <point x="171" y="108"/>
      <point x="75" y="157"/>
      <point x="75" y="269" type="curve" smooth="yes"/>
      <point x="75" y="403"/>
      <point x="203" y="441"/>
      <point x="357" y="441" type="curve"/>
    </contour>
    <contour>
      <point x="519" y="710" type="line"/>
      <point x="541" y="710" type="line"/>
      <point x="541" y="0" type="line"/>
      <point x="519" y="0" type="line"/>
    </contour>
    <contour>
      <point x="505" y="660" type="move" name="DVAnchor3"/>
    </contour>
  </outline>
</glyph>
<glyph name="c_ka.alt" format="1">
  <advance width="876"/>
  <outline>
    <contour>
      <point x="450" y="326" type="line"/>
      <point x="478" y="409"/>
      <point x="546" y="474"/>
      <point x="646" y="474" type="curve" smooth="yes"/>
      <point x="751" y="474"/>
      <point x="810" y="397"/>
      <point x="810" y="303" type="curve" smooth="yes"/>
      <point x="810" y="215"/>
      <point x="752" y="152"/>
      <point x="666" y="152" type="curve" smooth="yes"/>
      <point x="628" y="152"/>
      <point x="584" y="165"/>
      <point x="537" y="194" type="curve"/>
      <point x="531" y="175" type="line"/>
      <point x="580" y="146"/>
      <point x="626" y="133"/>
      <point x="666" y="133" type="curve" smooth="yes"/>
      <point x="764" y="133"/>
      <point x="831" y="207"/>
      <point x="831" y="301" type="curve" smooth="yes"/>
      <point x="831" y="405"/>
      <point x="766" y="495"/>
      <point x="643" y="495" type="curve" smooth="yes"/>
      <point x="533" y="495"/>
      <point x="461" y="421"/>
      <point x="433" y="326" type="curve"/>
    </contour>
    <contour>
      <point x="430" y="710" type="line"/>
      <point x="430" y="0" type="line"/>
      <point x="452" y="0" type="line"/>
      <point x="452" y="710" type="line"/>
    </contour>
    <contour>
      <point x="876" y="700" type="line"/>
      <point x="876" y="722" type="line"/>
      <point x="0" y="722" type="line"/>
      <point x="0" y="700" type="line"/>
    </contour>
    <contour>
      <point x="431" y="302" type="line"/>
      <point x="403" y="219"/>
      <point x="335" y="154"/>
      <point x="235" y="154" type="curve" smooth="yes"/>
      <point x="130" y="154"/>
      <point x="71" y="231"/>
      <point x="71" y="325" type="curve" smooth="yes"/>
      <point x="71" y="413"/>
      <point x="129" y="476"/>
      <point x="215" y="476" type="curve" smooth="yes"/>
      <point x="253" y="476"/>
      <point x="297" y="463"/>
      <point x="344" y="434" type="curve"/>
      <point x="350" y="453" type="line"/>
      <point x="301" y="482"/>
      <point x="255" y="495"/>
      <point x="215" y="495" type="curve" smooth="yes"/>
      <point x="117" y="495"/>
      <point x="50" y="421"/>
      <point x="50" y="327" type="curve" smooth="yes"/>
      <point x="50" y="223"/>
      <point x="115" y="133"/>
      <point x="238" y="133" type="curve" smooth="yes"/>
      <point x="348" y="133"/>
      <point x="420" y="207"/>
      <point x="448" y="302" type="curve"/>
    </contour>
    <contour>
      <point x="490.0" y="0.0" type="move" name="DVAnchor0"/>
    </contour>
    <contour>
      <point x="439.0" y="660.0" type="move" name="DVAnchor3"/>
    </contour>
  </outline>
</glyph>
<glyph name="c_ka" format="1">
  <advance width="855"/>
  <outline>
    <contour>
      <point x="437" y="334" type="line"/>
      <point x="462" y="424"/>
      <point x="528" y="482"/>
      <point x="620" y="482" type="curve" smooth="yes"/>
      <point x="719" y="482"/>
      <point x="795" y="423"/>
      <point x="795" y="328" type="curve" smooth="yes"/>
      <point x="795" y="234"/>
      <point x="729" y="168"/>
      <point x="635" y="168" type="curve" smooth="yes"/>
      <point x="586" y="168"/>
      <point x="545" y="178"/>
      <point x="508" y="209" type="curve"/>
      <point x="500" y="191" type="line"/>
      <point x="541" y="159"/>
      <point x="583" y="149"/>
      <point x="635" y="149" type="curve" smooth="yes"/>
      <point x="741" y="149"/>
      <point x="816" y="222"/>
      <point x="816" y="327" type="curve" smooth="yes"/>
      <point x="816" y="434"/>
      <point x="731" y="503"/>
      <point x="620" y="503" type="curve" smooth="yes"/>
      <point x="517" y="503"/>
      <point x="445" y="436"/>
      <point x="420" y="334" type="curve"/>
    </contour>
    <contour>
      <point x="418" y="710" type="line"/>
      <point x="418" y="0" type="line"/>
      <point x="440" y="0" type="line"/>
      <point x="440" y="710" type="line"/>
    </contour>
    <contour>
      <point x="864" y="700" type="line"/>
      <point x="864" y="722" type="line"/>
      <point x="-12" y="722" type="line"/>
      <point x="-12" y="700" type="line"/>
    </contour>
    <contour>
      <point x="419" y="291" type="line"/>
      <point x="389" y="205"/>
      <point x="318" y="159"/>
      <point x="227" y="159" type="curve" smooth="yes"/>
      <point x="130" y="159"/>
      <point x="59" y="223"/>
      <point x="59" y="319" type="curve" smooth="yes"/>
      <point x="59" y="413"/>
      <point x="133" y="472"/>
      <point x="231" y="472" type="curve" smooth="yes"/>
      <point x="317" y="472"/>
      <point x="381" y="427"/>
      <point x="418" y="349" type="curve"/>
      <point x="431" y="365" type="line"/>
      <point x="396" y="449"/>
      <point x="323" y="492"/>
      <point x="231" y="492" type="curve" smooth="yes"/>
      <point x="121" y="492"/>
      <point x="38" y="424"/>
      <point x="38" y="319" type="curve" smooth="yes"/>
      <point x="38" y="211"/>
      <point x="118" y="138"/>
      <point x="228" y="138" type="curve" smooth="yes"/>
      <point x="329" y="138"/>
      <point x="406" y="194"/>
      <point x="436" y="291" type="curve"/>
    </contour>
    <contour>
      <point x="478" y="0" type="move" name="DVAnchor0"/>
    </contour>
    <contour>
      <point x="427" y="660" type="move" name="DVAnchor3"/>
    </contour>
  </outline>
</glyph>
<glyph name="c_kha" format="1">
  <advance width="753"/>
  <outline>
    <contour>
      <point x="0" y="722" type="line"/>
      <point x="769" y="722" type="line"/>
      <point x="769" y="700" type="line"/>
      <point x="0" y="700" type="line"/>
    </contour>
    <contour>
      <point x="655" y="715" type="line"/>
      <point x="655" y="3" type="line"/>
      <point x="633" y="3" type="line"/>
      <point x="633" y="715" type="line"/>
    </contour>
    <contour>
      <point x="635" y="462" type="line"/>
      <point x="599" y="501"/>
      <point x="566" y="526"/>
      <point x="513" y="526" type="curve" smooth="yes"/>
      <point x="448" y="526"/>
      <point x="408" y="483"/>
      <point x="408" y="417" type="curve" smooth="yes"/>
      <point x="408" y="348"/>
      <point x="452" y="304"/>
      <point x="521" y="304" type="curve" smooth="yes"/>
      <point x="571" y="304"/>
      <point x="602" y="326"/>
      <point x="636" y="363" type="curve"/>
      <point x="652" y="349" type="line"/>
      <point x="613" y="308"/>
      <point x="577" y="282"/>
      <point x="521" y="282" type="curve" smooth="yes"/>
      <point x="439" y="282"/>
      <point x="386" y="335"/>
      <point x="386" y="417" type="curve" smooth="yes"/>
      <point x="386" y="496"/>
      <point x="435" y="548"/>
      <point x="513" y="548" type="curve" smooth="yes"/>
      <point x="572" y="548"/>
      <point x="610" y="521"/>
      <point x="651" y="478" type="curve"/>
    </contour>
    <contour>
      <point x="181" y="714" type="line"/>
      <point x="251" y="664"/>
      <point x="287" y="607"/>
      <point x="287" y="522" type="curve" smooth="yes"/>
      <point x="287" y="434"/>
      <point x="245" y="369"/>
      <point x="163" y="369" type="curve" smooth="yes"/>
      <point x="89" y="369"/>
      <point x="46" y="416"/>
      <point x="27" y="489" type="curve"/>
      <point x="49" y="493" type="line"/>
      <point x="49" y="258"/>
      <point x="177" y="94"/>
      <point x="403" y="94" type="curve" smooth="yes"/>
      <point x="497" y="94"/>
      <point x="569" y="105"/>
      <point x="639" y="168" type="curve"/>
      <point x="653" y="152" type="line"/>
      <point x="579" y="85"/>
      <point x="503" y="72"/>
      <point x="403" y="72" type="curve" smooth="yes"/>
      <point x="164" y="72"/>
      <point x="27" y="244"/>
      <point x="27" y="491" type="curve"/>
      <point x="49" y="495" type="line"/>
      <point x="65" y="432"/>
      <point x="100" y="391"/>
      <point x="163" y="391" type="curve" smooth="yes"/>
      <point x="232" y="391"/>
      <point x="265" y="447"/>
      <point x="265" y="522" type="curve" smooth="yes"/>
      <point x="265" y="602"/>
      <point x="230" y="655"/>
      <point x="163" y="700" type="curve"/>
    </contour>
  </outline>
</glyph>
<glyph name="c_ma" format="1">
  <advance width="553"/>
  <outline>
    <contour>
      <point x="410" y="710" type="line"/>
      <point x="410" y="0" type="line"/>
      <point x="432" y="0" type="line"/>
      <point x="432" y="710" type="line"/>
    </contour>
    <contour>
      <point x="561" y="700" type="line"/>
      <point x="561" y="722" type="line"/>
      <point x="-10" y="722" type="line"/>
      <point x="-10" y="700" type="line"/>
    </contour>
    <contour>
      <point x="160" y="273" type="curve"/>
      <point x="160" y="709" type="line"/>
      <point x="140" y="709" type="line"/>
      <point x="140" y="273" type="line"/>
      <point x="140" y="240"/>
      <point x="121" y="218"/>
      <point x="89" y="218" type="curve" smooth="yes"/>
      <point x="60" y="218"/>
      <point x="39" y="231"/>
      <point x="39" y="258" type="curve" smooth="yes"/>
      <point x="39" y="285"/>
      <point x="58" y="302"/>
      <point x="86" y="302" type="curve"/>
      <point x="425" y="302" type="line"/>
      <point x="425" y="322" type="line"/>
      <point x="87" y="322" type="line"/>
      <point x="46" y="322"/>
      <point x="18" y="297"/>
      <point x="18" y="257" type="curve" smooth="yes"/>
      <point x="18" y="219"/>
      <point x="47" y="198"/>
      <point x="88" y="198" type="curve" smooth="yes"/>
      <point x="133" y="198"/>
      <point x="160" y="228"/>
    </contour>
    <contour>
      <point x="447.0" y="660.0" type="move" name="DVAnchor3"/>
    </contour>
  </outline>
</glyph>
<glyph name="c_pa" format="1">
  <advance width="619"/>
  <outline>
    <contour>
      <point x="483" y="711" type="line"/>
      <point x="483" y="0" type="line"/>
      <point x="505" y="0" type="line"/>
      <point x="505" y="711" type="line"/>
    </contour>
    <contour>
      <point x="632" y="700" type="line"/>
      <point x="632" y="722" type="line"/>
      <point x="-6" y="722" type="line"/>
      <point x="-6" y="700" type="line"/>
    </contour>
    <contour>
      <point x="491" y="298" type="line"/>
      <point x="457" y="221"/>
      <point x="398" y="186"/>
      <point x="314" y="186" type="curve" smooth="yes"/>
      <point x="208" y="186"/>
      <point x="138" y="257"/>
      <point x="138" y="363" type="curve"/>
      <point x="138" y="710" type="line"/>
      <point x="116" y="710" type="line"/>
      <point x="116" y="366" type="line"/>
      <point x="116" y="245"/>
      <point x="191" y="163"/>
      <point x="310" y="163" type="curve" smooth="yes"/>
      <point x="401" y="163"/>
      <point x="469" y="202"/>
      <point x="503" y="286" type="curve"/>
    </contour>
  </outline>
</glyph>
<glyph name="c_tta" format="1">
  <advance width="587"/>
  <outline>
    <contour>
      <point x="593" y="700" type="line"/>
      <point x="593" y="722" type="line"/>
      <point x="0" y="722" type="line"/>
      <point x="0" y="700" type="line"/>
    </contour>
    <contour>
      <point x="425" y="711" type="line"/>
      <point x="425" y="522" type="line"/>
      <point x="447" y="522" type="line"/>
      <point x="447" y="711" type="line"/>
    </contour>
    <contour>
      <point x="436.0" y="522.0" type="line" smooth="yes"/>
      <point x="436.0" y="544.0" type="line"/>
      <point x="335.0" y="544.0" type="line" smooth="yes"/>
      <point x="191.0" y="544.0"/>
      <point x="88.0" y="470.0"/>
      <point x="88.0" y="333.0" type="curve" smooth="yes"/>
      <point x="88.0" y="203.0"/>
      <point x="175.0" y="124.0"/>
      <point x="307.0" y="124.0" type="curve" smooth="yes"/>
      <point x="363.0" y="124.0"/>
      <point x="414.0" y="133.0"/>
      <point x="447.0" y="157.0" type="curve"/>
      <point x="434.0" y="175.0" type="line"/>
      <point x="406.0" y="153.0"/>
      <point x="359.0" y="146.0"/>
      <point x="307.0" y="146.0" type="curve" smooth="yes"/>
      <point x="189.0" y="146.0"/>
      <point x="110.0" y="217.0"/>
      <point x="110.0" y="333.0" type="curve" smooth="yes"/>
      <point x="110.0" y="456.0"/>
      <point x="204.0" y="522.0"/>
      <point x="335.0" y="522.0" type="curve" smooth="yes"/>
    </contour>
  </outline>
</glyph>
<glyph name="c_va" format="1">
  <advance width="554"/>
  <outline>
    <contour>
      <point x="418" y="302" type="line"/>
      <point x="390" y="219"/>
      <point x="322" y="154"/>
      <point x="222" y="154" type="curve" smooth="yes"/>
      <point x="117" y="154"/>
      <point x="58" y="231"/>
      <point x="58" y="325" type="curve" smooth="yes"/>
      <point x="58.0" y="413.0"/>
      <point x="126.0" y="476.0"/>
      <point x="228" y="476" type="curve" smooth="yes"/>
      <point x="285.0" y="476.0"/>
      <point x="353" y="460"/>
      <point x="422" y="389" type="curve"/>
      <point x="429" y="410" type="line"/>
      <point x="358" y="480"/>
      <point x="287.0" y="495.0"/>
      <point x="228" y="495" type="curve" smooth="yes"/>
      <point x="115.0" y="495.0"/>
      <point x="37.0" y="421.0"/>
      <point x="37" y="327" type="curve" smooth="yes"/>
      <point x="37" y="223"/>
      <point x="102" y="133"/>
      <point x="225" y="133" type="curve" smooth="yes"/>
      <point x="335" y="133"/>
      <point x="407" y="207"/>
      <point x="435" y="302" type="curve"/>
    </contour>
    <contour>
      <point x="416" y="710" type="line"/>
      <point x="416" y="0" type="line"/>
      <point x="438" y="0" type="line"/>
      <point x="438" y="710" type="line"/>
    </contour>
    <contour>
      <point x="567" y="700" type="line"/>
      <point x="567" y="722" type="line"/>
      <point x="-18" y="722" type="line"/>
      <point x="-18" y="700" type="line"/>
    </contour>
    <contour>
      <point x="405.0" y="660.0" type="move" name="DVAnchor3"/>
    </contour>
  </outline>
</glyph>
<glyph name="ddadeva_viramadeva_ddadeva" format="1">
  <advance width="491"/>
  <outline>
    <contour>
      <point x="158" y="34" type="move"/>
      <point x="121" y="61"/>
      <point x="80" y="74"/>
      <point x="80" y="120" type="curve"/>
      <point x="80" y="163"/>
      <point x="107" y="187"/>
      <point x="142" y="213" type="curve"/>
      <point x="124" y="224" type="line"/>
      <point x="87" y="194"/>
      <point x="58" y="169"/>
      <point x="58" y="122" type="curve"/>
      <point x="58" y="64"/>
      <point x="106" y="44"/>
      <point x="156" y="12" type="curve"/>
    </contour>
    <contour>
      <point x="156" y="12" type="move"/>
      <point x="293" y="81"/>
      <point x="417" y="96"/>
      <point x="417" y="-10" type="curve" smooth="yes"/>
      <point x="417" y="-87"/>
      <point x="360" y="-130"/>
      <point x="279" y="-130" type="curve" smooth="yes"/>
      <point x="179" y="-130"/>
      <point x="112" y="-90"/>
      <point x="45" y="-15" type="curve"/>
      <point x="30" y="-30" type="line"/>
      <point x="101" y="-109"/>
      <point x="172" y="-151"/>
      <point x="278" y="-151" type="curve" smooth="yes"/>
      <point x="372" y="-151"/>
      <point x="438" y="-99"/>
      <point x="438" y="-8" type="curve" smooth="yes"/>
      <point x="436" y="106"/>
      <point x="303" y="112"/>
      <point x="158" y="34" type="curve"/>
    </contour>
    <contour>
      <point x="356" y="711" type="line"/>
      <point x="356" y="551" type="line"/>
      <point x="378" y="551" type="line"/>
      <point x="378" y="711" type="line"/>
    </contour>
    <contour>
      <point x="505" y="700" type="line"/>
      <point x="505" y="722" type="line"/>
      <point x="-9" y="722" type="line"/>
      <point x="-9" y="700" type="line"/>
    </contour>
    <contour>
      <point x="156" y="337" type="move"/>
      <point x="297" y="408"/>
      <point x="424" y="411"/>
      <point x="424" y="302" type="curve" smooth="yes"/>
      <point x="424" y="227"/>
      <point x="361" y="193"/>
      <point x="279" y="193" type="curve" smooth="yes"/>
      <point x="181" y="193"/>
      <point x="116" y="231"/>
      <point x="45" y="300" type="curve"/>
      <point x="30" y="285" type="line"/>
      <point x="105" y="212"/>
      <point x="174" y="172"/>
      <point x="278" y="172" type="curve" smooth="yes"/>
      <point x="374" y="172"/>
      <point x="445" y="215"/>
      <point x="445" y="304" type="curve" smooth="yes"/>
      <point x="443" y="423"/>
      <point x="306" y="438"/>
      <point x="158" y="359" type="curve"/>
    </contour>
    <contour>
      <point x="158" y="359" type="move"/>
      <point x="116" y="390"/>
      <point x="80" y="414"/>
      <point x="80" y="465" type="curve"/>
      <point x="80" y="532"/>
      <point x="144" y="551"/>
      <point x="221" y="551" type="curve"/>
      <point x="368" y="551" type="line"/>
      <point x="368" y="571" type="line"/>
      <point x="224" y="571" type="line"/>
      <point x="133" y="571"/>
      <point x="58" y="547"/>
      <point x="58" y="467" type="curve"/>
      <point x="58" y="403"/>
      <point x="101" y="372"/>
      <point x="156" y="337" type="curve"/>
    </contour>
    <contour>
      <point x="360.0" y="-113.0" type="move" name="DVAnchor0"/>
    </contour>
  </outline>
</glyph>
<glyph name="kana" format="1">
  <advance width="261"/>
  <outline>
    <contour>
      <point x="120" y="710" type="line"/>
      <point x="120" y="0" type="line"/>
      <point x="142" y="0" type="line"/>
      <point x="142" y="710" type="line"/>
    </contour>
    <contour>
      <point x="271" y="700" type="line"/>
      <point x="271" y="722" type="line"/>
      <point x="-12" y="722" type="line"/>
      <point x="-12" y="700" type="line"/>
    </contour>
  </outline>
</glyph>
